<?xml version="1.0" encoding="UTF-8" standalone="no"?>
<svg
   width="512"
   height="512"
   viewBox="0 0 21.97425 21.97425"
   version="1.1"
   id="svg1"
   sodipodi:docname="icon_monochrome.svg"
   inkscape:version="1.3.2 (091e20e, 2023-11-25, custom)"
   xmlns:inkscape="http://www.inkscape.org/namespaces/inkscape"
   xmlns:sodipodi="http://sodipodi.sourceforge.net/DTD/sodipodi-0.dtd"
   xmlns="http://www.w3.org/2000/svg"
   xmlns:svg="http://www.w3.org/2000/svg"
   xmlns:rdf="http://www.w3.org/1999/02/22-rdf-syntax-ns#"
   xmlns:cc="http://creativecommons.org/ns#"
   xmlns:dc="http://purl.org/dc/elements/1.1/"
   xmlns:sketch="http://www.bohemiancoding.com/sketch/ns">
  <sodipodi:namedview
     id="namedview1"
     pagecolor="#ffffff"
     bordercolor="#000000"
     borderopacity="0.25"
     inkscape:showpageshadow="2"
     inkscape:pageopacity="0.0"
     inkscape:pagecheckerboard="0"
     inkscape:deskcolor="#d1d1d1"
     inkscape:zoom="1.7324219"
     inkscape:cx="256"
     inkscape:cy="256"
     inkscape:window-width="1920"
     inkscape:window-height="1129"
     inkscape:window-x="-8"
     inkscape:window-y="-8"
     inkscape:window-maximized="1"
     inkscape:current-layer="svg1" />
  <!-- Generator: Sketch 3.2.2 (9983) - http://www.bohemiancoding.com/sketch -->
  <title
     id="title1">ic_cast_black_24dp</title>
  <desc
     id="desc1">Created with Sketch.</desc>
  <defs
     id="defs1" />
  <path
     d="m 0,16.97425 v 3 h 3 c 0,-1.66 -1.34,-3 -3,-3 z m 0,-4 v 2 c 2.76,0 5,2.24 5,5 h 2 c 0,-3.87 -3.13,-7 -7,-7 z M 0,8.9742487 V 10.97425 c 4.97,0 9,4.03 9,9 h 2 C 11,13.89425 6.07,8.9742487 0,8.9742487 Z M 20,1.9742488 H 2 c -1.09999996,0 -2,0.8999999 -2,1.9999999 v 3 h 2 v -3 H 20 V 17.97425 h -7 v 2 h 7 c 1.1,0 2,-0.9 2,-2 V 3.9742487 c 0,-1.1 -0.9,-1.9999999 -2,-1.9999999 z"
     id="cast"
     fill="#000000"
     sketch:type="MSShapeGroup"
     style="fill:#ffffff;fill-opacity:1;fill-rule:evenodd;stroke:none;stroke-width:1" />
  <metadata
     id="metadata1">
    <rdf:RDF>
      <cc:Work
         rdf:about="">
        <dc:title>ic_cast_black_24dp</dc:title>
      </cc:Work>
    </rdf:RDF>
  </metadata>
</svg>
