<?xml version="1.0" encoding="UTF-8" standalone="no"?>
<svg
   version="1.1"
   width="512"
   height="512"
   id="svg2"
   sodipodi:docname="icon_monochrome.svg"
   inkscape:version="1.3.2 (091e20e, 2023-11-25, custom)"
   xmlns:inkscape="http://www.inkscape.org/namespaces/inkscape"
   xmlns:sodipodi="http://sodipodi.sourceforge.net/DTD/sodipodi-0.dtd"
   xmlns="http://www.w3.org/2000/svg"
   xmlns:svg="http://www.w3.org/2000/svg">
  <defs
     id="defs2" />
  <sodipodi:namedview
     id="namedview2"
     pagecolor="#ffffff"
     bordercolor="#000000"
     borderopacity="0.25"
     inkscape:showpageshadow="2"
     inkscape:pageopacity="0.0"
     inkscape:pagecheckerboard="0"
     inkscape:deskcolor="#d1d1d1"
     inkscape:zoom="1.7324219"
     inkscape:cx="256"
     inkscape:cy="256"
     inkscape:window-width="1920"
     inkscape:window-height="1129"
     inkscape:window-x="-8"
     inkscape:window-y="-8"
     inkscape:window-maximized="1"
     inkscape:current-layer="svg2" />
  <path
     d="M 251.98252,-0.12157471 C 319.31121,-1.5503003 384.71003,25.420545 433.40569,71.342096 c 8.46343,8.127904 16.46396,16.47015 23.57378,25.825846 0.44488,0.576827 0.88976,1.153656 1.34812,1.747963 12.0899,15.727455 22.39192,32.540075 30.68135,50.566835 0.35336,0.76555 0.70672,1.5311 1.07078,2.31985 12.89928,28.32905 21.42167,59.76228 21.56672,91.01603 0.006,1.04702 0.0122,2.09403 0.0185,3.17278 0.01,2.21086 0.0171,4.42173 0.0211,6.6326 0.0107,3.30317 0.0433,6.6056 0.0772,9.9086 0.10111,18.79334 -1.916,36.91538 -6.47262,55.17159 -0.27568,1.11607 -0.55137,2.23214 -0.83541,3.38202 -8.85876,34.85402 -24.92979,67.29584 -47.47571,95.30879 -0.5001,0.62362 -1.00019,1.24724 -1.51545,1.88976 -12.12318,14.96329 -25.79055,29.21231 -41.19051,40.8162 -0.88614,0.67971 -0.88614,0.67971 -1.79019,1.37313 -9.67057,7.4038 -19.62967,14.00347 -30.23928,19.97985 -1.05207,0.59842 -1.05207,0.59842 -2.12539,1.20892 -15.19797,8.57744 -31.11824,15.0727 -47.72047,20.41097 -0.73269,0.23698 -1.46538,0.47395 -2.22028,0.71811 -2.56132,0.79211 -5.13757,1.50496 -7.72221,2.21793 -1.22814,0.35019 -2.45629,0.70037 -3.72166,1.06118 -12.29288,3.3154 -23.98477,3.85614 -36.66549,3.81414 -2.09861,0.005 -4.19723,0.0123 -6.29583,0.0201 -4.37154,0.011 -8.7427,0.006 -13.11422,-0.01 -5.53547,-0.0182 -11.06976,0.006 -16.60512,0.0443 -4.3275,0.0237 -8.65473,0.0219 -12.98229,0.013 -2.03761,-8.7e-4 -4.07525,0.006 -6.1128,0.0222 -14.76224,0.098 -28.02982,-2.01299 -42.22931,-6.03319 -1.80722,-0.50951 -1.80722,-0.50951 -3.65094,-1.02932 -2.56765,-0.75245 -5.09631,-1.56994 -7.6261,-2.44053 -0.91237,-0.3107 -1.82475,-0.62139 -2.76479,-0.9415 -29.73816,-10.40303 -57.14218,-26.26332 -80.978932,-46.8358 -1.23038,-1.05284 -1.23038,-1.05284 -2.485615,-2.12696 C 74.165403,439.11041 61.834132,426.86911 51.53197,412.85767 50.228018,411.08748 48.898657,409.33895 47.565302,407.59086 23.72865,375.84327 8.9260482,337.89989 2.1610183,298.95339 c -0.1980062,-1.1195 -0.396023,-2.23901 -0.6000294,-3.39244 -1.96972703,-12.6451 -1.96065202,-25.27453 -1.935637,-38.04568 9.3953e-4,-1.16278 0.002135,-2.32555 0.003203,-3.52356 0.0461224,-17.38336 0.57023134,-34.15138 4.6681245,-51.12673 0.263389,-1.10324 0.5267674,-2.2065 0.7981317,-3.34318 3.8610246,-15.68824 8.9716999,-30.87414 15.2166039,-45.76867 0.325494,-0.78035 0.650977,-1.56069 0.986326,-2.36468 7.56471,-17.80891 18.038613,-34.73742 29.975495,-49.95013 0.739059,-0.94274 1.478118,-1.885481 2.239565,-2.85679 20.39784,-25.434348 44.316103,-46.869178 72.495869,-63.337445 0.6391,-0.382257 1.27821,-0.764515 1.93668,-1.158357 C 165.59926,11.596731 208.49796,1.6950126 251.98252,-0.12157471 Z M 207.1496,77.95026 c -0.62895,0.529862 -1.25791,1.059725 -1.90592,1.605644 -12.58796,11.440996 -20.89041,29.193286 -21.72566,46.143726 -0.004,0.99544 -0.009,1.99086 -0.0138,3.01644 -0.007,1.15197 -0.0153,2.30392 -0.0232,3.49079 -0.003,1.24795 -0.005,2.49592 -0.009,3.7817 -0.007,1.32723 -0.014,2.65447 -0.0213,4.02193 -0.021,4.3891 -0.0335,8.77818 -0.0442,13.16732 -0.004,1.51926 -0.009,3.03851 -0.0132,4.55776 -0.0203,7.14624 -0.0355,14.29246 -0.0444,21.43872 -0.0107,8.20595 -0.0384,16.41159 -0.0817,24.61743 -0.0324,6.36906 -0.048,12.73804 -0.0516,19.10718 -0.002,3.79098 -0.0117,7.58162 -0.039,11.37251 -0.18652,27.48505 2.11344,49.82138 22.17078,70.42081 16.10177,15.27604 34.20703,20.48216 55.84305,20.18106 19.3154,-0.67897 35.94802,-10.80745 49.1202,-24.38493 17.2685,-20.01923 18.15268,-42.82858 18.0564,-68.09858 -0.011,-3.79074 -7.5e-4,-7.58145 0.006,-11.37219 0.007,-6.36054 -0.002,-12.72086 -0.0229,-19.08137 -0.0233,-7.30687 -0.0157,-14.61323 0.007,-21.92009 0.0195,-6.32399 0.0221,-12.64782 0.0109,-18.97184 -0.006,-3.75495 -0.007,-7.50967 0.006,-11.26461 0.0852,-25.84086 -1.87045,-48.86527 -20.42164,-68.465117 C 294.66692,68.070159 277.66577,59.659407 258.77236,59.44808 238.85407,59.577668 222.29814,64.5086 207.1496,77.95026 Z m -56.5854,178.29739 c -2.76538,3.95325 -2.31916,8.00552 -2.00184,12.6116 0.055,0.80435 0.10993,1.60868 0.16656,2.4374 2.09718,25.45739 15.56192,48.00409 34.14835,65.11643 15.89054,13.31227 38.21428,25.53182 59.50475,25.53182 0,23.25339 0,46.50679 0,70.46483 -26.75796,-0.20018 -26.75796,-0.20018 -35.16595,-0.28854 -2.21444,-0.01 -4.4289,-0.0175 -6.64335,-0.0242 -1.13744,-0.0163 -2.27488,-0.0328 -3.4468,-0.0497 -6.37995,-0.002 -11.09294,0.34008 -16.66755,3.56539 -2.85524,4.28288 -3.00972,7.7772 -2.1353,12.81179 2.85614,3.80817 4.98121,5.5836 9.60885,6.40589 1.87311,0.0979 3.74954,0.13936 5.62521,0.14276 1.70856,0.006 1.70856,0.006 3.45165,0.0138 1.86621,-7.2e-4 1.86621,-7.2e-4 3.77011,-10e-4 1.97183,0.005 1.97183,0.005 3.98349,0.0109 3.60222,0.009 7.20438,0.012 10.8066,0.0126 2.25133,7.6e-4 4.50265,0.003 6.75397,0.005 7.85627,0.01 15.71253,0.0142 23.56881,0.0134 7.32004,-6.4e-4 14.64,0.0107 21.96003,0.0275 6.28814,0.014 12.57625,0.0197 18.86441,0.019 3.75413,-2.8e-4 7.50817,0.003 11.26228,0.0141 4.18662,0.0123 8.37311,0.007 12.55974,9.5e-4 1.86296,0.009 1.86296,0.009 3.76357,0.0181 1.14205,-0.004 2.28411,-0.009 3.46076,-0.0136 1.48415,8.8e-4 1.48415,8.8e-4 2.99828,0.002 4.46417,-0.42941 7.31787,-1.66045 10.56969,-4.73651 2.34048,-3.90081 2.50989,-5.99092 1.80166,-10.47631 -1.77215,-3.13102 -3.81162,-5.86403 -7.31434,-7.1073 -2.62908,-0.41964 -5.11436,-0.49404 -7.77767,-0.48745 -1.10497,1.4e-4 -2.20993,2.7e-4 -3.34839,3.9e-4 -1.73074,0.009 -1.73074,0.009 -3.49644,0.0165 -1.59914,0.002 -1.59914,0.002 -3.23058,0.003 -3.97781,0.005 -7.9556,0.0205 -11.93338,0.0343 -13.34428,0.033 -13.34428,0.033 -26.95814,0.0667 0,-23.2534 0,-46.5068 0,-70.46484 6.87032,-1.05697 6.87032,-1.05697 13.87944,-2.1353 3.22687,-0.82775 6.27548,-1.66501 9.40866,-2.73585 0.80451,-0.27344 1.60903,-0.54689 2.43792,-0.82862 13.61838,-4.8624 25.51627,-12.33327 36.19762,-22.0591 0.81751,-0.71841 1.63501,-1.43683 2.47728,-2.177 18.86049,-17.54618 27.64623,-41.63538 29.74404,-66.78228 -0.22079,-4.19031 -1.10288,-6.54778 -3.39479,-10.04675 -3.05417,-2.21553 -5.37652,-2.39449 -9.07502,-2.00184 -0.80374,0.0687 -1.60747,0.13763 -2.43557,0.20852 -3.39412,1.03975 -4.5727,2.07062 -6.63945,4.99627 -0.83765,3.43371 -1.1316,6.89627 -1.46801,10.40957 -1.80344,14.98181 -5.85074,27.95292 -15.61437,39.76993 -1.05078,1.32741 -1.05078,1.32741 -2.12279,2.68163 -14.53103,17.34692 -36.26816,26.83987 -58.50799,28.98084 -23.43865,1.80993 -46.60247,-4.62575 -65.15162,-19.25105 -18.21738,-15.7092 -26.40706,-34.00808 -28.2927,-57.79068 -0.83162,-4.22899 -1.89096,-6.12194 -5.0046,-9.07084 -5.39091,-2.00592 -10.54419,-1.73392 -14.94709,2.1353 z"
     fill="#fefefe"
     id="path1"
     style="stroke-width:1.06765" />
  <path
     d="m 258.39675,70.476717 c 1.86421,1.388777 1.86421,1.388777 3.20295,3.202947 -0.0667,3.803499 -0.0667,3.803499 -1.06765,7.473543 -3.46686,2.45057 -7.06814,2.544206 -11.21032,2.936035 -12.80025,1.739454 -22.93114,7.717936 -31.49564,17.349298 -7.08776,9.54841 -9.80267,19.51206 -11.27704,31.162 -0.4671,3.00277 -0.4671,3.00277 -2.6024,5.13806 -3.73677,0.33365 -3.73677,0.33365 -7.47354,0 -3.53035,-5.29552 -2.62049,-10.85006 -1.63901,-16.97811 3.71708,-16.73787 13.08987,-30.67595 27.25425,-40.424702 11.01587,-6.772408 23.21181,-11.126484 36.3084,-9.859071 z"
     fill="#ffffff"
     id="path2"
     style="stroke-width:1.06765" />
</svg>
