<?xml version="1.0" encoding="UTF-8" standalone="no"?>
<!-- ***** BEGIN LICENSE BLOCK *****
  - Part of the Jellyfin project (https://jellyfin.media)
  -
  - All copyright belongs to the Jellyfin contributors; a full list can
  - be found in the file CONTRIBUTORS.md
  -
  - This work is licensed under the Creative Commons Attribution-ShareAlike 4.0 International License.
  - To view a copy of this license, visit http://creativecommons.org/licenses/by-sa/4.0/.
- ***** END LICENSE BLOCK ***** -->

<svg
   id="icon-solid-black"
   viewBox="0 0 512 512.00001"
   version="1.1"
   sodipodi:docname="icon_monochrome.svg"
   inkscape:version="1.3.2 (091e20e, 2023-11-25, custom)"
   width="512"
   height="512"
   xmlns:inkscape="http://www.inkscape.org/namespaces/inkscape"
   xmlns:sodipodi="http://sodipodi.sourceforge.net/DTD/sodipodi-0.dtd"
   xmlns="http://www.w3.org/2000/svg"
   xmlns:svg="http://www.w3.org/2000/svg">
  <sodipodi:namedview
     id="namedview2"
     pagecolor="#ffffff"
     bordercolor="#000000"
     borderopacity="0.25"
     inkscape:showpageshadow="2"
     inkscape:pageopacity="0.0"
     inkscape:pagecheckerboard="0"
     inkscape:deskcolor="#d1d1d1"
     inkscape:zoom="1.7324219"
     inkscape:cx="268.69899"
     inkscape:cy="256"
     inkscape:window-width="1920"
     inkscape:window-height="1129"
     inkscape:window-x="-8"
     inkscape:window-y="-8"
     inkscape:window-maximized="1"
     inkscape:current-layer="icon-solid-black" />
  <defs
     id="defs2">
    <linearGradient
       id="linear-gradient"
       x1="110.25"
       y1="213.3"
       x2="496.14001"
       y2="436.09"
       gradientUnits="userSpaceOnUse">
      <stop
         offset="0"
         stop-color="#aa5cc3"
         id="stop1" />
      <stop
         offset="1"
         stop-color="#00a4dc"
         id="stop2" />
    </linearGradient>
  </defs>
  <g
     id="icon-solid"
     style="fill:#ffffff;fill-opacity:1"
     transform="matrix(1.1004643,0,0,1.1004643,-25.635578,-25.640817)">
    <path
       id="inner-shape"
       d="m 256,201.62 c -20.44,0 -86.23,119.29 -76.2,139.43 10.03,20.14 142.48,19.92 152.4,0 9.92,-19.92 -55.73,-139.42 -76.2,-139.43 z"
       fill="url(#linear-gradient)"
       style="fill:#ffffff;fill-opacity:1" />
    <path
       id="outer-shape"
       d="m 256,23.3 c -61.56,0 -259.82,359.43 -229.59,420.13 30.23,60.7 429.34,60 459.24,0 C 515.55,383.43 317.62,23.3 256,23.3 Z m 150.51,367.46 c -19.59,39.33 -281.08,39.77 -300.89,0 -19.81,-39.77 110.09,-275.28 150.44,-275.28 40.35,0 170.04,235.94 150.45,275.28 z"
       fill="url(#linear-gradient)"
       style="fill:#ffffff;fill-opacity:1" />
  </g>
</svg>
