<?xml version="1.0" encoding="UTF-8" standalone="no"?>
<svg
   clip-rule="evenodd"
   fill-rule="evenodd"
   stroke-linejoin="round"
   stroke-miterlimit="2"
   version="1.1"
   viewBox="6.4552e-05 0 512 512"
   xml:space="preserve"
   id="svg3"
   sodipodi:docname="icon_monochrome.svg"
   inkscape:version="1.3.2 (091e20e, 2023-11-25, custom)"
   width="512"
   height="512"
   xmlns:inkscape="http://www.inkscape.org/namespaces/inkscape"
   xmlns:sodipodi="http://sodipodi.sourceforge.net/DTD/sodipodi-0.dtd"
   xmlns="http://www.w3.org/2000/svg"
   xmlns:svg="http://www.w3.org/2000/svg"><defs
   id="defs3">
    </defs><sodipodi:namedview
   id="namedview3"
   pagecolor="#3fffff"
   bordercolor="#000000"
   borderopacity="0.25"
   inkscape:showpageshadow="2"
   inkscape:pageopacity="0.0"
   inkscape:pagecheckerboard="0"
   inkscape:deskcolor="#d1d1d1"
   inkscape:zoom="1.774"
   inkscape:cx="229.14318"
   inkscape:cy="195.32131"
   inkscape:window-width="1920"
   inkscape:window-height="1129"
   inkscape:window-x="-8"
   inkscape:window-y="-8"
   inkscape:window-maximized="1"
   inkscape:current-layer="svg3" />
    <path
   id="path2"
   style="fill:#ffffff;fill-opacity:1;stroke-width:0.500068"
   d="M 115.20161,0 C 51.57797,0 6e-5,51.5779 6e-5,115.20154 V 396.79846 C 6e-5,460.4221 51.57797,512 115.20161,512 h 281.5969 c 63.62364,0 115.20155,-51.5779 115.20155,-115.20154 V 115.20154 C 512.00006,51.5779 460.42215,0 396.79851,0 Z m 45.10183,215.54316 c 22.47905,0 40.76783,18.09781 40.76783,40.34584 0,22.24202 -18.28878,40.34184 -40.76783,40.34184 -22.48106,0 -40.77584,-18.09982 -40.77584,-40.34184 0,-22.24803 18.29478,-40.34584 40.77584,-40.34584 z m -84.35967,0.0119 c 15.70863,0 24.73785,10.4109 25.11789,10.85596 l 1.278,1.50399 -11.73995,7.84797 -1.018,-0.754 c -1.89875,-1.40419 -7.03355,-4.66598 -13.63794,-4.66598 -7.83757,0 -12.51995,4.3004 -12.51995,8.45596 0,1.77123 -10e-4,5.45134 14.76394,10.09597 7.58703,2.38232 12.67691,4.74457 16.54393,7.66398 5.76328,4.34658 8.68596,9.91801 8.68596,16.53792 0,6.17184 -2.88678,12.19035 -7.92196,16.51593 -5.05769,4.33259 -11.9959,6.72598 -19.54592,6.72598 -15.71014,0 -24.73885,-10.4169 -25.1119,-10.85396 l -1.284,-1.50398 11.74595,-7.84598 1.018,0.74999 c 1.89026,1.40219 7.01405,4.66399 13.63195,4.66399 7.83756,0 12.52395,-4.29441 12.52395,-8.45197 0,-1.77024 0.001,-5.45333 -14.76194,-10.09596 -7.59053,-2.38532 -12.67841,-4.74457 -16.54594,-7.66396 -5.76528,-4.3466 -8.69196,-9.91305 -8.69196,-16.53795 0,-6.17284 2.88878,-12.19134 7.92596,-16.51593 5.05369,-4.33858 11.9924,-6.72797 19.54393,-6.72797 z m 360.09859,0.17802 c 15.70714,0 24.73986,10.41689 25.1119,10.85595 l 1.28,1.506 -11.73995,7.84997 -1.02,-0.75601 c -1.89626,-1.40017 -7.01204,-4.66197 -13.63195,-4.66197 -7.84105,0 -12.52796,4.2954 -12.52796,8.44996 0,1.77225 -6e-5,5.45233 14.76594,10.09597 7.59204,2.38133 12.68143,4.74458 16.54796,7.66396 5.76378,4.34761 8.68195,9.91705 8.68195,16.53794 0,6.17485 -2.88528,12.19136 -7.92197,16.51394 -5.05268,4.34059 -11.99189,6.72997 -19.54592,6.72997 -15.70813,0 -24.73386,-10.4109 -25.1099,-10.85396 l -1.28401,-1.50798 11.74396,-7.84197 1.018,0.74798 c 1.89627,1.4042 7.03006,4.66799 13.63195,4.66799 7.84007,0 12.52796,-4.2994 12.52796,-8.45597 0,-1.77024 -9.5e-4,-5.45333 -14.76595,-10.08996 -7.59303,-2.38932 -12.67941,-4.74858 -16.54793,-7.66797 -5.7638,-4.3496 -8.67798,-9.91403 -8.67798,-16.53994 0,-6.16582 2.88329,-12.18735 7.91798,-16.51593 5.05669,-4.33858 11.9949,-6.72797 19.54592,-6.72797 z m -84.35767,0.11 c 22.48704,0 40.77783,18.09882 40.77783,40.34383 0,22.24504 -18.29079,40.34385 -40.77783,40.34385 -22.47607,0 -40.76584,-18.09881 -40.76584,-40.34385 0,-22.24501 18.28977,-40.34383 40.76584,-40.34383 z m -127.54551,0.61199 49.14981,45.33983 v -43.18581 h 14.56594 v 77.06569 l -49.1518,-45.27182 v 42.92382 h -14.56395 z m -63.83574,13.59394 c -14.25795,0 -25.8499,11.59297 -25.8499,25.84592 0,14.25093 11.59195,25.84389 25.8499,25.84389 14.25591,0 25.8559,-11.59296 25.8559,-25.84389 0,-14.25295 -11.59999,-25.84592 -25.8559,-25.84592 z m 191.37925,0.29801 c -14.25494,0 -25.8459,11.59197 -25.8459,25.83989 0,14.24895 11.59096,25.8459 25.8459,25.8459 14.25493,0 25.8539,-11.59695 25.8539,-25.8459 0,-14.24792 -11.59897,-25.83989 -25.8539,-25.83989 z" />
</svg>
