<?xml version="1.0" encoding="UTF-8" standalone="no"?>
<svg
   viewBox="0 0 46.545455 46.545455"
   version="1.1"
   id="svg6"
   sodipodi:docname="icon_monochrome.svg"
   inkscape:version="1.3.2 (091e20e, 2023-11-25, custom)"
   width="512"
   height="512"
   xmlns:inkscape="http://www.inkscape.org/namespaces/inkscape"
   xmlns:sodipodi="http://sodipodi.sourceforge.net/DTD/sodipodi-0.dtd"
   xmlns="http://www.w3.org/2000/svg"
   xmlns:svg="http://www.w3.org/2000/svg">
  <defs
     id="defs6" />
  <sodipodi:namedview
     id="namedview6"
     pagecolor="#2dffff"
     bordercolor="#000000"
     borderopacity="0.25"
     inkscape:showpageshadow="2"
     inkscape:pageopacity="0.0"
     inkscape:pagecheckerboard="0"
     inkscape:deskcolor="#d1d1d1"
     inkscape:zoom="1.7324219"
     inkscape:cx="256"
     inkscape:cy="256"
     inkscape:window-width="1920"
     inkscape:window-height="1129"
     inkscape:window-x="-8"
     inkscape:window-y="-8"
     inkscape:window-maximized="1"
     inkscape:current-layer="surface1" />
  <g
     id="surface1">
    <path
       id="path2"
       style="fill:#ffffff;fill-opacity:1;fill-rule:nonzero;stroke:none;stroke-width:1.7418"
       d="M 15.904427,3.2727275 V 43.157134 c 5.259396,0 15.295161,1.217894 22.119451,-0.693998 3.068548,-1.07501 5.60641,-2.980107 7.184909,-5.844543 1.313147,-2.809999 1.762205,-6.416075 0.707605,-9.375761 -0.986561,-2.565063 -2.884854,-4.17759 -5.334251,-5.300232 -0.163294,-0.07484 -0.31298,-0.142879 -0.469468,-0.210919 0.952541,-0.741626 1.816639,-1.53088 2.612694,-2.435793 1.673753,-2.367751 1.911893,-4.960043 1.714581,-7.756434 C 44.174595,9.8588978 43.09958,7.7564886 41.813645,6.6406539 41.711593,6.5658107 41.609529,6.484164 41.50747,6.4093207 37.949041,3.2727352 37.948993,3.2727275 15.904427,3.2727275 Z m 13.961584,8.8042335 c 1.694167,-0.02041 3.007321,0.170104 4.259237,1.394796 0.435449,1.081818 0.415035,2.204462 0.02041,3.299886 -0.653173,0.932135 -1.224702,1.353975 -2.347344,1.5717 -0.585132,0.08164 -1.143055,0.102052 -1.734991,0.09526 h -0.591939 -0.741625 c -1.177071,-0.0068 -1.177073,-0.0068 -2.374558,-0.01359 v -6.273182 c 1.326758,-0.02722 1.326759,-0.02722 2.673931,-0.05443 0.278957,-0.0068 0.551115,-0.01359 0.836877,-0.02041 z m 1.581905,14.81547 c 1.573558,0.004 3.008174,0.139483 4.323873,1.18728 0.728017,0.966148 0.823272,1.871074 0.687193,3.06175 -0.306171,1.088623 -0.775643,1.823443 -1.741796,2.435794 -1.619322,0.762033 -3.429165,0.578331 -5.164153,0.557918 -1.054603,-0.01359 -2.109207,-0.02041 -3.19783,-0.03402 v -7.144085 c 1.109035,-0.01359 2.21807,-0.02722 3.361124,-0.04083 0.346999,-0.0068 0.693996,-0.01359 1.047798,-0.02041 0.230482,-0.0026 0.459,-0.004 0.683791,-0.0035 z" />
    <path
       style="fill:#ffffff;fill-opacity:1;fill-rule:nonzero;stroke:none;stroke-width:1.74176"
       d="m 0.75194386,21.178389 c 2.98678294,0 5.97356584,0 9.05559834,0 0,7.361809 0,14.716816 0,22.296351 -2.9867812,0 -5.9803673,0 -9.05559834,0 0,-7.355008 0,-14.710014 0,-22.296351 z m 0,0"
       id="path3" />
    <path
       style="fill:#ffffff;fill-opacity:1;fill-rule:nonzero;stroke:none;stroke-width:1.7418"
       d="m 7.9357088,7.2114205 c 1.3811904,0.850486 2.1500292,2.0411674 2.6535182,3.5516295 0.224528,1.789422 -0.24494,3.122984 -1.326759,4.558605 -0.9933672,1.081819 -2.054776,1.551287 -3.5176114,1.62613 C 4.3976853,16.975009 3.3566903,16.750471 2.2272452,15.988435 2.0707553,15.879573 1.9074619,15.777516 1.7373651,15.668654 0.66915281,14.600444 0.09762593,13.3009 0.05,11.783634 0.07721382,10.368426 0.567094,9.2457844 1.4652094,8.1571618 3.1729848,6.5378348 5.8196999,6.2248567 7.9357088,7.2114205 Z m 0,0"
       id="path4" />
  </g>
</svg>
