<?xml version="1.0" encoding="UTF-8" standalone="no"?>
<svg
   width="512"
   height="512"
   viewBox="0 0 23.925234 23.925234"
   version="1.1"
   id="svg1"
   sodipodi:docname="icon_monochrome.svg"
   inkscape:version="1.3.2 (091e20e, 2023-11-25, custom)"
   xmlns:inkscape="http://www.inkscape.org/namespaces/inkscape"
   xmlns:sodipodi="http://sodipodi.sourceforge.net/DTD/sodipodi-0.dtd"
   xmlns="http://www.w3.org/2000/svg"
   xmlns:svg="http://www.w3.org/2000/svg">
  <defs
     id="defs1" />
  <sodipodi:namedview
     id="namedview1"
     pagecolor="#ffffff"
     bordercolor="#000000"
     borderopacity="0.25"
     inkscape:showpageshadow="2"
     inkscape:pageopacity="0.0"
     inkscape:pagecheckerboard="0"
     inkscape:deskcolor="#d1d1d1"
     inkscape:zoom="1.7324219"
     inkscape:cx="256"
     inkscape:cy="256"
     inkscape:window-width="1920"
     inkscape:window-height="1129"
     inkscape:window-x="-8"
     inkscape:window-y="-8"
     inkscape:window-maximized="1"
     inkscape:current-layer="svg1" />
  <path
     fill="#ffffff"
     d="m 14.32188,14.893 -8.3960014,0.003 a 4.549,4.549 0 0 0 -4.5459995,4.543 c 0,2.05 0.007,3.737 0.007,3.737 V 24 H 14.34188 l 0.191,-0.002 c 4.678,-0.099 8.077,-3.577 8.077,-8.273 a 8.733,8.733 0 0 0 -0.805,-3.721 8.77,8.77 0 0 0 0.805,-3.724 c 0,-4.695 -3.399,-8.173 -8.084,-8.275 L 1.3868791,0 v 0.833 c 0,0 -0.007,1.681 -0.007,3.733 A 4.548,4.548 0 0 0 5.9258786,9.107 L 14.32488,9.12 c 2.375,0 4.392,1.048 5.567,2.884 -1.178,1.838 -3.197,2.889 -5.57,2.889 m 0.219,-7.452 -8.6150014,0.002 a 2.88,2.88 0 0 1 -2.879,-2.877 V 1.665 H 14.32488 c 3.835,0 6.62,2.782 6.62,6.615 0,0.681 -0.092,1.339 -0.271,1.97 -1.47,-1.726 -3.669,-2.75 -6.133,-2.809 m 6.133,6.314 c 0.179,0.629 0.271,1.29 0.271,1.97 0,3.831 -2.785,6.611 -6.62,6.611 L 3.0468786,22.338 v -2.899 a 2.882,2.882 0 0 1 2.879,-2.879 H 14.37188 l 0.288,-0.015 c 2.412,-0.084 4.564,-1.088 6.014,-2.79"
     id="path1" />
</svg>
