<?xml version="1.0" encoding="UTF-8" standalone="no"?>
<svg
   viewBox="0 0 51.2 51.2"
   version="1.1"
   id="svg10"
   sodipodi:docname="icon_monochrome.svg"
   width="512"
   height="512"
   inkscape:version="1.3.2 (091e20e, 2023-11-25, custom)"
   xmlns:inkscape="http://www.inkscape.org/namespaces/inkscape"
   xmlns:sodipodi="http://sodipodi.sourceforge.net/DTD/sodipodi-0.dtd"
   xmlns="http://www.w3.org/2000/svg"
   xmlns:svg="http://www.w3.org/2000/svg">
  <defs
     id="defs10" />
  <sodipodi:namedview
     id="namedview10"
     pagecolor="#ffffff"
     bordercolor="#000000"
     borderopacity="0.25"
     inkscape:showpageshadow="2"
     inkscape:pageopacity="0.0"
     inkscape:pagecheckerboard="0"
     inkscape:deskcolor="#d1d1d1"
     inkscape:zoom="1.7324219"
     inkscape:cx="256"
     inkscape:cy="256"
     inkscape:window-width="1920"
     inkscape:window-height="1129"
     inkscape:window-x="-8"
     inkscape:window-y="-8"
     inkscape:window-maximized="1"
     inkscape:current-layer="svg10" />
  <g
     fill="none"
     stroke="#000"
     stroke-linecap="round"
     stroke-linejoin="round"
     id="g10"
     style="stroke:#ffffff;stroke-opacity:1"
     transform="matrix(1.4217781,0,0,1.4217781,-8.701253,-8.534934)">
    <path
       d="m 28.022,15.688 a 0.7584,0.7584 0 0 0 -0.479,0.172 l -5.229,4.328 H 17.71 a 0.7509,0.7509 0 0 0 -0.75,0.75 v 5.719 a 0.7545,0.7545 0 0 0 0.75,0.75 h 0.016 l 4.952,-0.088 4.842,4.395 a 0.75,0.75 0 0 0 0.504,0.193 0.7625,0.7625 0 0 0 0.305,-0.064 0.75,0.75 0 0 0 0.445,-0.686 V 16.438 a 0.7511,0.7511 0 0 0 -0.432,-0.68 0.779,0.779 0 0 0 -0.32,-0.07 z"
       id="path1"
       style="stroke:#ffffff;stroke-opacity:1" />
    <path
       d="M 7.886,15.149 A 17.3584,17.3584 0 0 1 22.865,6.503"
       id="path2"
       style="stroke:#ffffff;stroke-opacity:1" />
    <path
       d="M 23.14,41.496 A 17.3567,17.3567 0 0 1 8.16,32.85"
       id="path3"
       style="stroke:#ffffff;stroke-opacity:1" />
    <path
       d="m 37.866,15.149 a 17.3123,17.3123 0 0 1 0,17.297"
       id="path4"
       style="stroke:#ffffff;stroke-opacity:1" />
    <path
       d="M 10.357,16.527 A 14.586,14.586 0 0 1 22.942,9.262"
       id="path5"
       style="stroke:#ffffff;stroke-opacity:1" />
    <path
       d="M 22.941,38.329 A 14.5809,14.5809 0 0 1 10.358,31.067"
       id="path6"
       style="stroke:#ffffff;stroke-opacity:1" />
    <path
       d="m 35.361,16.526 a 14.5464,14.5464 0 0 1 0.002,14.54"
       id="path7"
       style="stroke:#ffffff;stroke-opacity:1" />
    <path
       d="m 12.816,17.925 a 11.6457,11.6457 0 0 1 10.05,-5.801"
       id="path8"
       style="stroke:#ffffff;stroke-opacity:1" />
    <path
       d="M 22.865,35.47 A 11.6427,11.6427 0 0 1 12.817,29.671"
       id="path9"
       style="stroke:#ffffff;stroke-opacity:1" />
    <path
       d="M 33.043,17.997 A 11.6239,11.6239 0 0 1 33.041,29.599"
       id="path10"
       style="stroke:#ffffff;stroke-opacity:1" />
  </g>
</svg>
