<?xml version="1.0" encoding="UTF-8" standalone="no"?>
<!-- Uploaded to: SVG Repo, www.svgrepo.com, Generator: SVG Repo Mixer Tools -->

<svg
   fill="#000000"
   width="512"
   height="512"
   viewBox="0 0 19.973987 19.973987"
   enable-background="new 0 0 24 24"
   version="1.1"
   id="svg1"
   sodipodi:docname="icon_monochrome.svg"
   inkscape:version="1.3.2 (091e20e, 2023-11-25, custom)"
   xmlns:inkscape="http://www.inkscape.org/namespaces/inkscape"
   xmlns:sodipodi="http://sodipodi.sourceforge.net/DTD/sodipodi-0.dtd"
   xmlns="http://www.w3.org/2000/svg"
   xmlns:svg="http://www.w3.org/2000/svg">
  <defs
     id="defs1" />
  <sodipodi:namedview
     id="namedview1"
     pagecolor="#ffffff"
     bordercolor="#000000"
     borderopacity="0.25"
     inkscape:showpageshadow="2"
     inkscape:pageopacity="0.0"
     inkscape:pagecheckerboard="0"
     inkscape:deskcolor="#d1d1d1"
     inkscape:zoom="1.10875"
     inkscape:cx="400"
     inkscape:cy="400"
     inkscape:window-width="1920"
     inkscape:window-height="1129"
     inkscape:window-x="-8"
     inkscape:window-y="-8"
     inkscape:window-maximized="1"
     inkscape:current-layer="svg1" />
  <path
     d="m 10.8,11.42 c -0.1,-0.1 -0.1,-0.2 -0.2,-0.2 -0.5,-0.3 -1.1,-0.2 -1.5,0.2 l -4,6 c 0,0.2 -0.1,0.4 -0.1,0.6 0,0.6 0.4,1 1,1 h 8 c 0.2,0 0.4,-0.1 0.6,-0.2 0.5,-0.3 0.6,-0.9 0.3,-1.4 z M 17,1.02 H 3 c -1.7,0 -3,1.3 -3,3 v 9 c 0,1.7 1.3,3 3,3 h 0.8 c 0.6,0 1,-0.4 1,-1 0,-0.6 -0.4,-1 -1,-1 H 3 c -0.6,0 -1,-0.4 -1,-1 v -9 c 0,-0.6 0.4,-1 1,-1 h 14 c 0.6,0 1,0.4 1,1 v 9 c 0,0.6 -0.4,1 -1,1 h -0.8 c -0.6,0 -1,0.4 -1,1 0,0.6 0.4,1 1,1 H 17 c 1.7,0 3,-1.3 3,-3 v -9 c 0,-1.7 -1.3,-3 -3,-3 z"
     id="path1"
     style="fill:#ffffff;fill-opacity:1" />
</svg>
