<?xml version="1.0" encoding="UTF-8" standalone="no"?>
<svg
   viewBox="0 0 48 48"
   version="1.1"
   id="svg7"
   sodipodi:docname="audiobookshelf.svg"
   inkscape:version="1.3.2 (091e20e, 2023-11-25, custom)"
   xmlns:inkscape="http://www.inkscape.org/namespaces/inkscape"
   xmlns:sodipodi="http://sodipodi.sourceforge.net/DTD/sodipodi-0.dtd"
   xmlns="http://www.w3.org/2000/svg"
   xmlns:svg="http://www.w3.org/2000/svg">
  <defs
     id="defs7" />
  <sodipodi:namedview
     id="namedview7"
     pagecolor="#ffffff"
     bordercolor="#000000"
     borderopacity="0.25"
     inkscape:showpageshadow="2"
     inkscape:pageopacity="0.0"
     inkscape:pagecheckerboard="0"
     inkscape:deskcolor="#d1d1d1"
     inkscape:zoom="18.5625"
     inkscape:cx="24"
     inkscape:cy="24"
     inkscape:window-width="1920"
     inkscape:window-height="1129"
     inkscape:window-x="-8"
     inkscape:window-y="-8"
     inkscape:window-maximized="1"
     inkscape:current-layer="svg7" />
  <g
     fill="none"
     stroke="#000"
     stroke-linecap="round"
     stroke-linejoin="round"
     id="g7"
     style="stroke:#ffffff;stroke-opacity:1">
    <path
       d="m8.8429 43.5h30.3142"
       id="path1"
       style="stroke:#ffffff;stroke-opacity:1" />
    <rect
       height="26.8958"
       rx="1.6555"
       width="7.0518"
       x="13.4223"
       y="13.5728"
       id="rect1"
       style="stroke:#ffffff;stroke-opacity:1" />
    <path
       d="m13.4223 18.6161h7.0518"
       id="path2"
       style="stroke:#ffffff;stroke-opacity:1" />
    <rect
       height="26.8958"
       rx="1.6555"
       width="7.0518"
       x="20.4741"
       y="13.5728"
       id="rect2"
       style="stroke:#ffffff;stroke-opacity:1" />
    <path
       d="m20.4741 18.6161h7.0518"
       id="path3"
       style="stroke:#ffffff;stroke-opacity:1" />
    <rect
       height="26.8958"
       rx="1.6555"
       width="7.0518"
       x="27.5259"
       y="13.5728"
       id="rect3"
       style="stroke:#ffffff;stroke-opacity:1" />
    <path
       d="m27.5259 18.6161h7.0518"
       id="path4"
       style="stroke:#ffffff;stroke-opacity:1" />
    <path
       d="m37.5124 17.0019c0-8.0207-5.4916-12.5019-13.5124-12.5019s-13.5124 4.4812-13.5124 12.5019"
       id="path5"
       style="stroke:#ffffff;stroke-opacity:1" />
    <path
       d="m9.504 17.0019h.9836a0 0 0 0 1 0 0v9.5135a0 0 0 0 1 0 0h-.9836a3.2625 3.2625 0 0 1 -3.2625-3.2625v-2.9884a3.2625 3.2625 0 0 1 3.2625-3.2626z"
       id="path6"
       style="stroke:#ffffff;stroke-opacity:1" />
    <path
       d="m40.7749 17.0019h.9836a0 0 0 0 1 0 0v9.5135a0 0 0 0 1 0 0h-.9836a3.2625 3.2625 0 0 1 -3.2625-3.2625v-2.9884a3.2625 3.2625 0 0 1 3.2625-3.2626z"
       transform="matrix(-1 0 0 -1 79.2709 43.5174)"
       id="path7"
       style="stroke:#ffffff;stroke-opacity:1" />
  </g>
</svg>
