<svg viewBox="0 0 1237.26 1237.26" xmlns="http://www.w3.org/2000/svg" xmlns:xlink="http://www.w3.org/1999/xlink"><linearGradient id="a" gradientUnits="userSpaceOnUse" x1="617.37" x2="617.37" y1="20.7" y2="1216.56"><stop offset=".32" stop-color="#cd9d49"/><stop offset=".99" stop-color="#875d27"/></linearGradient><circle cx="618.63" cy="618.63" fill="#fff" r="618.63"/><circle cx="617.37" cy="618.63" fill="url(#a)" r="597.93"/><g fill="#fff"><path d="m1005.57 574.08c-4.84-4-12.37-10-22.58-17v-79.2c0-201.93-163.69-365.63-365.62-365.63-201.93 0-365.63 163.7-365.63 365.63v79.2c-10.21 7-17.74 13-22.58 17a18.15 18.15 0 0 0 -6.53 13.92v94.89a18.15 18.15 0 0 0 6.53 14c11.29 9.4 37.19 29.1 77.52 49.31v9.22c0 24.88 16 45 35.84 45 19.79 0 35.84-20.16 35.84-45v-227.59c0-24.87-16.05-45-35.84-45-19 0-34.48 18.51-35.75 41.94h-.09v-46.9c0-171.59 139.1-310.69 310.69-310.69 171.58 0 310.68 139.1 310.68 310.69v46.9h-.08c-1.27-23.43-16.79-41.94-35.76-41.94-19.79 0-35.83 20.17-35.83 45v227.57c0 24.88 16 45 35.83 45 19.8 0 35.84-20.16 35.84-45v-9.22c40.33-20.21 66.24-39.91 77.52-49.31a18.15 18.15 0 0 0 6.53-14v-94.87a18.15 18.15 0 0 0 -6.53-13.92z"/><path d="m489.87 969.71a43.31 43.31 0 0 0 43.3-43.3v-484.77a43.3 43.3 0 0 0 -43.3-43.29h-44.72a43.3 43.3 0 0 0 -43.3 43.29v484.77a43.31 43.31 0 0 0 43.3 43.3zm-71.69-455.1h98.67v10.31h-98.67z"/><path d="m639.73 969.71a43.3 43.3 0 0 0 43.27-43.3v-484.77a43.29 43.29 0 0 0 -43.29-43.29h-44.71a43.29 43.29 0 0 0 -43.29 43.29v484.77a43.3 43.3 0 0 0 43.29 43.3zm-71.73-455.1h98.7v10.31h-98.7z"/><path d="m789.59 969.71a43.3 43.3 0 0 0 43.29-43.3v-484.77a43.29 43.29 0 0 0 -43.29-43.29h-44.73a43.3 43.3 0 0 0 -43.3 43.29v484.77a43.31 43.31 0 0 0 43.3 43.3zm-71.7-455.1h98.67v10.31h-98.67z"/><rect height="65.25" rx="32.63" width="645.74" x="294.5" y="984.69"/></g></svg>
