<?xml version="1.0" encoding="UTF-8" standalone="no"?>
<!-- Uploaded to: SVG Repo, www.svgrepo.com, Generator: SVG Repo Mixer Tools -->

<svg
   fill="#000000"
   width="512"
   height="512"
   viewBox="0 0 31.999998 31.999998"
   version="1.1"
   id="svg1"
   sodipodi:docname="icon_monochrome.svg"
   inkscape:version="1.3.2 (091e20e, 2023-11-25, custom)"
   xmlns:inkscape="http://www.inkscape.org/namespaces/inkscape"
   xmlns:sodipodi="http://sodipodi.sourceforge.net/DTD/sodipodi-0.dtd"
   xmlns="http://www.w3.org/2000/svg"
   xmlns:svg="http://www.w3.org/2000/svg">
  <defs
     id="defs1" />
  <sodipodi:namedview
     id="namedview1"
     pagecolor="#ffffff"
     bordercolor="#000000"
     borderopacity="0.25"
     inkscape:showpageshadow="2"
     inkscape:pageopacity="0.0"
     inkscape:pagecheckerboard="0"
     inkscape:deskcolor="#d1d1d1"
     inkscape:zoom="1.10875"
     inkscape:cx="400"
     inkscape:cy="400"
     inkscape:window-width="1920"
     inkscape:window-height="1129"
     inkscape:window-x="-8"
     inkscape:window-y="-8"
     inkscape:window-maximized="1"
     inkscape:current-layer="svg1" />
  <path
     d="M 31.995,8.167 C 31.995,7.183 31.912,6.203 31.677,5.245 31.255,3.5 30.26,2.167 28.771,1.188 28.005,0.688 27.162,0.381 26.266,0.219 25.578,0.094 24.881,0.037 24.183,0.021 24.131,0.016 24.074,0.005 24.016,0 H 7.985 C 7.782,0.016 7.579,0.026 7.376,0.036 6.381,0.093 5.392,0.197 4.454,0.572 2.673,1.275 1.386,2.504 0.636,4.275 0.376,4.874 0.245,5.509 0.152,6.155 0.074,6.676 0.032,7.202 0.017,7.728 c 0,0.042 -0.01,0.083 -0.01,0.125 V 24.15 c 0.01,0.188 0.021,0.375 0.031,0.563 0.068,1.089 0.208,2.167 0.667,3.167 0.865,1.891 2.318,3.135 4.313,3.734 0.557,0.172 1.141,0.25 1.724,0.302 0.74,0.073 1.479,0.083 2.219,0.083 h 14.708 c 0.698,0 1.396,-0.047 2.094,-0.135 1.099,-0.141 2.13,-0.464 3.063,-1.078 1.12,-0.74 1.964,-1.719 2.505,-2.943 0.25,-0.563 0.391,-1.161 0.495,-1.766 0.151,-0.901 0.182,-1.813 0.182,-2.724 -0.005,-5.063 0,-10.125 -0.005,-15.188 z m -8.563,5.317 v 7.615 c 0,0.557 -0.078,1.104 -0.328,1.609 -0.385,0.786 -1.01,1.281 -1.849,1.521 -0.464,0.135 -0.943,0.208 -1.427,0.229 -1.266,0.063 -2.365,-0.797 -2.589,-2.047 -0.193,-1.031 0.302,-2.167 1.385,-2.698 0.427,-0.208 0.891,-0.333 1.354,-0.427 0.505,-0.109 1.01,-0.208 1.51,-0.323 0.37,-0.083 0.609,-0.307 0.682,-0.688 0.021,-0.083 0.026,-0.172 0.026,-0.255 0,-2.422 0,-4.844 0,-7.26 0,-0.083 -0.016,-0.167 -0.036,-0.245 -0.052,-0.203 -0.198,-0.323 -0.406,-0.313 -0.214,0.01 -0.422,0.047 -0.63,0.089 -1.016,0.198 -2.031,0.401 -3.042,0.609 l -4.932,0.995 c -0.021,0.005 -0.047,0.016 -0.068,0.016 -0.37,0.104 -0.5,0.271 -0.516,0.656 -0.005,0.057 0,0.115 0,0.172 -0.005,3.469 0,6.938 -0.005,10.406 0,0.563 -0.063,1.115 -0.286,1.635 -0.37,0.854 -1.026,1.391 -1.911,1.646 C 9.895,26.561 9.416,26.64 8.926,26.655 7.65,26.702 6.587,25.853 6.369,24.598 6.181,23.515 6.676,22.348 7.905,21.827 8.384,21.629 8.879,21.52 9.384,21.416 c 0.38,-0.078 0.766,-0.156 1.146,-0.234 0.51,-0.109 0.776,-0.432 0.802,-0.953 v -0.198 c 0,-3.948 0,-7.896 0,-11.844 0,-0.167 0.021,-0.333 0.057,-0.495 0.094,-0.38 0.365,-0.599 0.729,-0.688 0.339,-0.089 0.688,-0.151 1.031,-0.224 0.979,-0.198 1.953,-0.396 2.932,-0.589 l 3.026,-0.615 c 0.896,-0.177 1.786,-0.359 2.682,-0.536 0.292,-0.057 0.589,-0.12 0.885,-0.141 0.411,-0.036 0.698,0.224 0.74,0.641 0.01,0.099 0.016,0.198 0.016,0.297 0,2.547 0,5.094 0,7.641 z"
     id="path1"
     style="fill:#ffffff;fill-opacity:1" />
</svg>
