<?xml version="1.0" encoding="UTF-8" standalone="no"?>
<svg
   version="1.1"
   width="512"
   height="512"
   id="svg3"
   sodipodi:docname="icon_monochrome.svg"
   inkscape:version="1.3.2 (091e20e, 2023-11-25, custom)"
   xmlns:inkscape="http://www.inkscape.org/namespaces/inkscape"
   xmlns:sodipodi="http://sodipodi.sourceforge.net/DTD/sodipodi-0.dtd"
   xmlns="http://www.w3.org/2000/svg"
   xmlns:svg="http://www.w3.org/2000/svg">
  <defs
     id="defs3" />
  <sodipodi:namedview
     id="namedview3"
     pagecolor="#ffffff"
     bordercolor="#000000"
     borderopacity="0.25"
     inkscape:showpageshadow="2"
     inkscape:pageopacity="0.0"
     inkscape:pagecheckerboard="0"
     inkscape:deskcolor="#d1d1d1"
     inkscape:zoom="1.7324219"
     inkscape:cx="302.75536"
     inkscape:cy="256"
     inkscape:window-width="1920"
     inkscape:window-height="1129"
     inkscape:window-x="-8"
     inkscape:window-y="-8"
     inkscape:window-maximized="1"
     inkscape:current-layer="svg3" />
  <path
     d="m 379.01159,165.62007 c 1.75217,1.63478 3.49225,3.2826 5.2208,4.94235 1.48811,1.40197 1.48811,1.40197 3.0063,2.83228 17.18308,16.60791 37.22415,42.33614 42.65822,66.22139 1.34383,0.0704 2.68766,0.14071 4.07222,0.21319 17.21152,1.20347 17.21152,1.20347 23.34564,7.88774 0.50825,0.63459 1.01648,1.26918 1.54013,1.92299 0.73508,0.73509 1.47018,1.47017 2.22754,2.22754 0.73509,0.73509 1.47017,1.47017 2.22754,2.22753 0.66331,0.53122 1.3266,1.06244 2.01,1.60975 12.58958,10.21419 17.64899,24.87783 19.91297,40.58295 1.94139,19.12621 -0.62779,39.96749 -12.38633,55.74936 -2.32448,2.80959 -4.66988,5.24524 -7.51794,7.51794 -3.37717,2.77679 -5.19445,5.62995 -7.58755,9.2582 -4.18545,3.98393 -7.38917,5.16834 -13.06067,6.03872 -1.42424,0.24694 -2.84847,0.49388 -4.31586,0.74831 -2.24654,0.37278 -4.49327,0.73271 -6.7457,1.06809 -8.50242,0.8616 -8.50242,0.8616 -15.3475,5.19632 -0.85115,2.32921 -1.29992,4.55891 -1.73972,6.9964 -0.59177,1.42812 -1.23369,2.83646 -1.92298,4.22014 -0.33956,0.69543 -0.67911,1.39086 -1.02893,2.10735 -19.10927,38.11319 -49.61267,68.18365 -90.53506,82.07792 -3.34599,1.0479 -6.71158,1.99935 -10.09354,2.92364 -0.80274,0.23259 -1.60548,0.46518 -2.43256,0.70481 -24.92387,7.00864 -55.18901,6.45887 -79.98634,-0.70481 -1.22726,-0.33138 -1.22726,-0.33138 -2.47932,-0.66945 -25.18865,-6.90559 -46.59278,-20.50978 -65.46057,-38.31246 -0.89015,-0.80543 -1.7803,-1.61088 -2.69741,-2.44072 -16.47906,-15.50816 -31.69251,-38.90965 -37.39828,-61.0441 0.409,-3.49852 1.30988,-4.73437 3.41092,-7.72678 4.3861,-7.46433 2.63159,-17.07778 1.04416,-25.19902 -5.47532,-29.87963 -1.38435,-66.35067 15.59276,-91.81632 -0.12743,-2.1853 -0.32273,-4.36694 -0.55688,-6.5434 -0.0992,-9.96309 5.25001,-15.54389 11.69457,-22.41459 0.6145,-0.67533 1.22898,-1.35066 1.86209,-2.04644 20.29787,-22.15508 45.99241,-37.92121 74.98796,-45.84562 0.80276,-0.23259 1.6055,-0.46519 2.43257,-0.70481 24.92388,-7.00863 55.18902,-6.45887 79.98633,0.70481 0.81818,0.22091 1.63636,0.44184 2.47933,0.66944 25.16063,6.89791 46.6408,20.48636 65.46058,38.31247 1.43212,1.34382 1.43212,1.34382 2.89319,2.71481 6.04526,5.83554 12.19598,11.9957 16.04088,19.56056 -1.11377,3.34131 -1.11377,3.34131 -4.45508,5.9169 -2.58803,2.09536 -3.30204,2.88934 -4.52468,6.12573 0.13543,6.90728 3.00811,11.91819 6.68261,17.54186 14.7023,23.78637 12.87775,60.91888 8.97976,87.36125 -1.14646,7.82124 -1.68274,13.00932 2.22754,20.04784 0.73509,0 1.47017,0 2.22753,0 -0.52834,-0.55132 -1.05668,-1.10263 -1.60103,-1.67066 -4.07365,-6.51781 -2.8243,-12.91088 -1.2356,-19.99564 6.36126,-29.62527 2.33609,-67.89569 -13.45658,-93.80022 -1.69704,-2.88159 -2.47359,-4.81648 -2.64085,-8.16183 2.02176,-4.60513 4.66813,-7.37266 8.91015,-10.02392 2.09621,-0.65184 4.21012,-1.24821 6.33456,-1.80117 1.10694,-0.29128 2.21387,-0.58254 3.35436,-0.88265 0.84564,-0.21697 1.69127,-0.43394 2.56254,-0.65749 -9.5914,-19.59431 -20.52173,-36.5533 -35.64061,-52.34714 -0.82697,-0.89731 -1.65394,-1.79464 -2.50597,-2.71916 -18.4349,-19.37483 -43.25944,-33.16018 -68.84484,-40.43938 -0.7744,-0.22146 -1.5488,-0.44293 -2.34664,-0.67109 -39.03492,-10.5042 -78.9409,-3.08741 -113.75507,16.24646 -13.24353,7.63866 -24.66327,17.77144 -35.30125,28.69695 -0.5384,0.48814 -1.0768,0.97627 -1.6315,1.47921 -13.49349,12.57276 -23.76728,29.9585 -31.78157,46.41284 0.72648,0.12205 1.45294,0.24408 2.20143,0.36982 6.74665,1.22395 12.82991,2.41007 17.84641,7.42657 1.20123,7.20743 -0.41232,11.36368 -4.17664,17.47225 -14.79037,24.01482 -16.26055,62.51205 -10.81574,89.81502 1.22391,7.09451 1.70506,13.78117 -1.36611,20.37849 -3.66545,3.76451 -6.17854,4.75151 -11.39002,5.07287 -6.1077,-0.0622 -12.02936,-1.46628 -17.985631,-2.70611 -1.183747,-0.22828 -2.367493,-0.45656 -3.587115,-0.69176 -8.014179,-1.65189 -13.890725,-3.0756 -18.618651,-10.16749 0,-1.10263 0,-2.20526 0,-3.34131 -0.930343,-0.37902 -0.930343,-0.37902 -1.879486,-0.76571 -10.600619,-6.01657 -16.895395,-19.18081 -20.295831,-30.43287 -5.215268,-20.88533 -3.290954,-43.11446 6.582552,-62.358 3.741896,-6.13629 8.506744,-11.52917 14.478995,-15.59276 0.735088,0 1.470176,0 2.227538,0 0.252692,-0.62024 0.505373,-1.24047 0.765717,-1.8795 2.581493,-4.54834 5.464216,-7.47786 10.302362,-9.53664 6.538291,-1.547 13.432631,-1.59678 20.11745,-1.94909 0.0819,-0.71355 0.16367,-1.42711 0.24799,-2.16229 1.22963,-4.83823 3.47476,-8.96618 5.80813,-13.36087 0.49667,-0.93752 0.99333,-1.87505 1.50505,-2.84098 4.61845,-8.53483 9.9013,-16.29097 15.82798,-23.95908 0.74657,-0.99495 1.49315,-1.98991 2.26234,-3.01501 27.76147,-35.60943 68.47919,-61.15246 113.64359,-66.77393 49.91872,-5.60339 96.23648,9.43012 133.92635,42.57121 z m -80.88746,112.7691 c -8.42065,11.97497 -10.78964,24.82768 -10.78964,39.19075 7.35087,0 14.70175,0 22.27538,0 0.59726,-2.71064 1.19451,-5.42128 1.80987,-8.21406 2.22598,-9.2749 5.25991,-17.03762 12.46029,-23.59797 4.58207,-2.06642 8.53431,-3.06724 13.57406,-2.71481 7.36675,2.99663 12.42395,7.92539 15.8451,15.12724 2.62827,6.75973 3.36732,11.88071 4.20274,19.3996 7.71842,0 15.43684,0 23.38915,0 0,-18.26101 -4.80687,-33.34085 -17.57232,-46.63908 -9.63947,-9.21595 -19.02566,-11.87042 -32.20547,-11.73917 -14.58485,0.52129 -23.93206,8.09197 -32.98916,19.1875 z m -123.2803,-3.13248 c -8.97806,12.38702 -11.67017,23.89504 -11.13769,38.98192 6.61579,0 13.23158,0 20.04784,0 0.43646,-2.36606 0.87292,-4.73213 1.3226,-7.16989 1.80989,-8.40367 4.15319,-15.0983 10.37197,-21.16161 4.35033,-2.71895 6.9613,-4.01842 12.18185,-3.82858 6.00522,1.47497 9.95852,4.05597 13.57406,9.04937 4.11452,6.97738 5.34667,15.31691 7.10028,23.11071 6.61578,0 13.23158,0 20.04784,0 0.70356,-15.94743 -3.80911,-30.84402 -14.74003,-42.81049 -9.63821,-8.5294 -19.67183,-11.22019 -32.31236,-10.98542 -11.28741,0.9044 -19.03317,6.46913 -26.45636,14.81399 z m 16.70653,79.0776 c -2.23144,2.23144 -1.38166,6.56039 -1.39221,9.60625 0.0734,21.83862 7.00591,41.26568 22.32324,57.05021 12.98457,12.18139 31.35505,19.75666 49.23641,20.21751 1.13422,0.056 2.26845,0.11199 3.43703,0.16967 20.47781,0.57523 38.82027,-4.28746 54.54857,-17.78114 5.53046,-5.42267 9.62618,-11.2296 13.29562,-18.02913 0.51254,-0.92174 1.02509,-1.84347 1.55318,-2.79313 6.33994,-12.52664 9.58106,-27.75515 8.47074,-41.75763 -3.34479,0.3478 -4.32795,0.96181 -6.526,3.5893 -0.69488,1.04376 -1.38977,2.08752 -2.10571,3.16293 -10.9296,15.55906 -26.108,26.20726 -44.89881,30.28058 -27.05716,4.5889 -53.1258,2.13652 -75.8755,-13.92211 -8.61174,-8.42035 -13.63361,-19.0529 -18.72525,-29.79331 -1.10263,0 -2.20526,0 -3.34131,0 z"
     fill="#fefefe"
     id="path1"
     style="stroke-width:1.11377" />
  <path
     d="m 148.11338,36.910151 c 0.0521,15.403598 0.0912,30.807181 0.11541,46.210849 0.0116,7.152682 0.0274,14.305306 0.0527,21.45795 0.0242,6.90382 0.0375,13.80757 0.0433,20.71142 0.005,2.63278 0.0121,5.26558 0.0241,7.89834 0.0162,3.69003 0.0184,7.37983 0.0174,11.0699 0.008,1.08632 0.0161,2.17265 0.0243,3.29189 -0.0219,7.22783 -0.22817,13.45018 -4.87145,19.32256 -10.32123,8.30185 -21.54453,9.32052 -34.38761,8.14443 -9.163036,-1.98351 -14.809047,-5.50702 -20.047845,-13.36522 -0.51642,-5.57736 -0.137084,-8.92728 3.341307,-13.36523 8.082328,-7.6333 17.602498,-9.22446 28.305388,-9.07983 7.95977,0.46894 14.00657,2.57961 20.70044,6.85229 1.31803,-9.49821 1.36212,-18.97541 1.46618,-28.54467 0.023,-1.78359 0.0463,-3.56718 0.0702,-5.35076 0.0611,-4.66343 0.1163,-9.32692 0.17024,-13.990444 0.0562,-4.771155 0.1181,-9.542238 0.17947,-14.31333 0.11917,-9.338629 0.23228,-18.677319 0.3414,-28.016074 -1.02121,0.34764 -2.04243,0.695281 -3.09459,1.053455 -9.78192,3.308431 -19.61186,6.354399 -29.5397,9.201051 -1.44415,0.416328 -2.88822,0.832881 -4.33223,1.249641 -2.98381,0.860336 -5.9683,1.718262 -8.953329,2.574317 -3.82738,1.0978 -7.653024,2.201506 -11.478214,3.306897 -2.962215,0.855393 -5.925246,1.70793 -8.888543,2.559565 -2.096957,0.603151 -4.19326,1.208575 -6.289552,1.814033 -1.892279,0.54165 -1.892279,0.54165 -3.822786,1.094241 -1.112036,0.319565 -2.224072,0.63913 -3.369807,0.968379 -2.650146,0.681337 -2.650146,0.681337 -4.877684,0.681337 0.0099,1.338639 0.01978,2.677277 0.02998,4.05648 0.09033,12.618456 0.157106,25.236842 0.200849,37.855552 0.02324,6.48735 0.05477,12.97444 0.105262,19.46164 0.04843,6.26111 0.07505,12.52197 0.0866,18.78325 0.0083,2.38817 0.0243,4.77631 0.04835,7.16436 0.03237,3.34641 0.03678,6.69179 0.03473,10.03833 0.01601,0.98618 0.03204,1.97237 0.04854,2.98844 -0.04061,6.08845 -0.957625,9.53814 -5.009379,14.37014 -7.175372,6.27846 -18.040707,8.50757 -27.452666,8.11399 -8.596191,-1.0424 -17.6497399,-2.65123 -23.7807036,-9.22775 -2.68642167,-4.31456 -3.75186413,-7.42458 -2.85403275,-12.39068 1.91509215,-5.90488 5.69006705,-8.45501 10.95930835,-11.21166 10.957425,-4.72899 23.488617,-4.95216 34.705216,-0.97019 4.766193,1.98177 4.766193,1.98177 6.19534,3.41092 0.01148,-0.84178 0.02296,-1.68356 0.03478,-2.55085 0.111288,-8.11858 0.225673,-16.2371 0.343157,-24.3556 0.06023,-4.16906 0.119454,-8.33814 0.175948,-12.50727 0.316108,-23.25531 0.865024,-46.491997 1.67365,-69.735635 8.630354,-3.465563 17.545554,-5.937644 26.473764,-8.50119 1.702353,-0.491647 3.404609,-0.983629 5.106774,-1.475927 4.456264,-1.287972 8.913691,-2.571847 13.371433,-3.854717 6.298885,-1.81357 12.596135,-3.632831 18.893605,-5.451344 3.34879,-0.967008 6.69802,-1.932508 10.0476,-2.896791 1.52483,-0.439494 3.04968,-0.87899 4.5745,-1.318487 1.33094,-0.383169 2.66189,-0.766338 4.03315,-1.161118 7.05224,-2.07088 7.05224,-2.07088 11.05575,-2.07088 z"
     fill="#ffffff"
     id="path2"
     style="stroke-width:1.11377" />
  <path
     d="m 466.65129,28 c 1.47017,0 2.94034,0 4.45507,0 0.34456,1.424232 0.68914,2.848464 1.04415,4.315855 2.83122,8.40187 9.35116,13.993424 15.59713,20.013035 13.45348,13.006686 24.21334,26.398883 25.08618,45.956834 0.17361,10.661136 -1.70256,20.933406 -4.97309,31.067246 -0.73509,0.73508 -1.47017,1.47018 -2.22753,2.22754 0.10124,-0.67811 0.20244,-1.35622 0.30672,-2.05487 0.46373,-3.14236 0.91387,-6.28653 1.36393,-9.43087 0.15937,-1.06602 0.31873,-2.13204 0.48292,-3.23037 1.97109,-13.93838 2.64574,-26.895745 -5.03372,-39.158112 -2.42875,-2.79777 -4.69715,-3.923505 -8.38371,-4.250595 -5.69615,0.48564 -9.61014,1.673464 -13.6657,5.83036 -7.2622,8.770183 -6.81353,19.396549 -6.59084,30.168317 0.0575,2.80999 0.086,5.61903 0.10759,8.42951 0.0505,5.95819 0.13637,11.91558 0.22733,17.87327 0.10535,6.92465 0.19607,13.84886 0.2492,20.77413 0.0288,2.76081 0.0844,5.52023 0.14126,8.28058 0.0161,1.6975 0.0311,3.39501 0.0445,5.09252 0.0231,0.7604 0.046,1.5208 0.0697,2.30423 0.002,5.51904 -1.56275,8.55919 -4.95989,12.8328 -9.43121,8.72768 -21.89695,10.68374 -34.33541,10.34153 -10.71248,-0.96308 -20.15034,-4.22935 -27.47876,-12.29062 -2.18754,-4.73967 -2.56615,-8.51073 -1.67066,-13.64367 3.58226,-7.45111 9.63823,-11.51161 17.26342,-14.20056 14.88703,-4.45102 29.2071,-3.30495 42.86407,4.06379 0.74037,0.40479 1.48075,0.80957 2.24357,1.22662 0.0625,-12.3974 -0.0823,-24.7759 -0.41253,-37.16889 -0.0773,-2.90358 -0.15127,-5.80723 -0.22456,-8.71091 -0.18253,-7.20701 -0.3698,-14.41389 -0.55785,-21.620755 -0.15953,-6.118223 -0.31673,-12.236499 -0.47086,-18.354862 -0.0718,-2.815092 -0.14687,-5.630082 -0.22211,-8.445083 C 466.66254,53.489889 466.59822,40.752021 466.65129,28 Z"
     fill="#ffffff"
     id="path3"
     style="stroke-width:1.11377" />
</svg>
