<?xml version="1.0" encoding="UTF-8" standalone="no"?>
<!-- Created with Inkscape (http://www.inkscape.org/) -->

<svg
   width="512"
   height="512"
   viewBox="0 0 135.46666 135.46667"
   version="1.1"
   id="svg1"
   xml:space="preserve"
   inkscape:version="1.3.2 (091e20e, 2023-11-25, custom)"
   sodipodi:docname="rb.svg"
   xmlns:inkscape="http://www.inkscape.org/namespaces/inkscape"
   xmlns:sodipodi="http://sodipodi.sourceforge.net/DTD/sodipodi-0.dtd"
   xmlns="http://www.w3.org/2000/svg"
   xmlns:svg="http://www.w3.org/2000/svg"><sodipodi:namedview
     id="namedview1"
     pagecolor="#ffffff"
     bordercolor="#000000"
     borderopacity="0.25"
     inkscape:showpageshadow="2"
     inkscape:pageopacity="0.0"
     inkscape:pagecheckerboard="0"
     inkscape:deskcolor="#d1d1d1"
     inkscape:document-units="mm"
     inkscape:zoom="1.5875"
     inkscape:cx="212.59843"
     inkscape:cy="265.51181"
     inkscape:window-width="1920"
     inkscape:window-height="1129"
     inkscape:window-x="-8"
     inkscape:window-y="-8"
     inkscape:window-maximized="1"
     inkscape:current-layer="svg1" /><defs
     id="defs1" /><path
     style="fill:#fdfdfd;stroke:none"
     d="m 28.062502,62.360417 c -14.017827,0.116022 -20.3924476,20.84435 -11.087796,30.687579 3.362535,3.557172 5.366557,5.054222 10.294046,5.926786 1.71487,0.30368 4.104818,0.697697 5.445394,-0.722081 2.238201,-2.370438 0.327507,-7.409802 0.134538,-10.227702 -0.324932,-4.744962 -0.06684,-9.739812 1.390286,-14.287499 0.806556,-2.517264 2.626168,-4.840241 3.083948,-7.408333 0.272093,1.651142 -1.104458,3.285991 -1.769607,4.7625 -1.079322,2.395888 -1.755381,5.075804 -2.123606,7.672916 -0.792379,5.588717 0.652867,10.656196 0.628183,16.139582 -0.0098,2.176547 -1.807316,3.92363 -1.360279,6.085415 1.74411,8.4342 9.204313,15.93698 16.002392,20.63077 14.800687,10.21924 36.872691,9.53173 50.270831,-2.92737 3.527978,-3.28071 6.558068,-6.92743 8.992768,-11.08882 1.08642,-1.85692 1.664,-4.72027 3.02801,-6.29344 2.01529,-2.324351 6.28076,-1.27165 8.88029,-2.61889 1.29907,-0.673256 1.92874,-1.956147 2.93613,-2.949005 4.23077,-4.169706 6.43477,-9.886613 5.7206,-15.919909 -0.71743,-6.060725 -3.4024,-12.09721 -8.9203,-15.383395 -1.53254,-0.912702 -4.42684,-0.0029 -5.62831,-1.180419 -1.7549,-1.719856 -2.46189,-5.860809 -3.8975,-8.042435 -4.07109,-6.186613 -9.36769,-11.67146 -15.609605,-15.69187 C 76.425407,27.90041 53.335163,31.242849 38.381252,46.220834 34.345875,50.262706 28.928631,56.495586 28.062502,62.360417 m 81.227078,0.79375 c -1.99935,0.269452 -5.53381,1.33481 -5.35597,3.96875 0.11567,1.713291 1.7007,3.359928 2.18097,5.027083 H 105.85 c -0.92273,-1.564649 -2.30817,-3.406268 -2.34491,-5.291667 -0.0334,-1.71401 1.66813,-2.187027 1.97355,-3.639038 0.29241,-1.390217 -2.07052,-3.371346 -2.91593,-4.253543 C 87.896209,43.660849 64.336844,40.644415 47.112501,53.663468 43.356674,56.502312 39.622491,59.918851 37.587502,64.2125 L 32.295835,62.095834 C 33.851928,56.694266 38.291964,51.699602 42.350001,48.028 c 4.512604,-4.082882 9.047566,-7.268847 14.816666,-9.364738 15.995228,-5.811007 33.93579,-0.403181 44.735603,12.584656 2.8189,3.389998 6.14864,7.606479 7.38731,11.906249 m -8.46667,21.166665 c -1.413442,0 -4.786096,0.624026 -5.925973,-0.271931 -0.75513,-0.593552 -0.693248,-2.546485 -0.963604,-3.432235 -0.595192,-1.949962 -1.704604,-3.659483 -3.429168,-4.801079 -2.441565,-1.616245 -5.069029,-0.01533 -6.469428,2.155246 -0.960479,1.488717 -1.082266,5.09624 -2.411053,6.078068 -0.728024,0.53792 -2.173616,0.272319 -3.025768,0.271931 -0.621256,-2.74e-4 -1.4565,0.125542 -2.032353,-0.159647 -0.95494,-0.472937 -0.399217,-2.187609 -0.342365,-3.015352 0.224615,-3.270456 1.683255,-6.625791 4.007338,-8.950713 4.285026,-4.286576 11.649304,-4.779367 16.049343,-0.285004 3.244876,3.314438 4.530531,7.870538 4.543031,12.410716 M 65.633333,83.262499 h -5.291666 c -0.55882,-4.149843 -4.445154,-12.006122 -9.173446,-6.603149 -0.545397,0.623217 -0.975894,1.356336 -1.324144,2.105233 -0.650861,1.39964 -0.947556,2.976191 -1.144076,4.497916 h -5.291666 c 0,-2.791544 0.117164,-5.383085 1.394371,-7.937499 3.220705,-6.441411 11.994592,-8.601623 17.268143,-3.09558 2.89034,3.017758 3.562484,7.046388 3.562484,11.033079 m 40.745827,-10.847916 0.26459,1.058333 h -0.26459 v -1.058333 m 0.44097,1.499311 -0.0882,0.176378 0.0882,-0.176378 m 0.26459,0.79375 -0.0882,0.176378 0.0882,-0.176378 m 0.26458,0.79375 -0.0882,0.176378 0.0882,-0.176378 m 0.35278,0.881939 v 0.79375 h -0.26458 l 0.26458,-0.79375 m 0.26458,1.058333 v 1.058333 h -0.26458 l 0.26458,-1.058333 m 0.26459,1.322917 c 0.14078,3.278239 0.79896,6.482477 0.48425,9.789583 -0.34503,3.625618 -1.64358,7.088213 -0.21967,10.583332 -1.34776,-0.923352 -1.13562,-3.024863 -1.03465,-4.497916 0.23794,-3.47109 0.77007,-6.820578 0.77007,-10.31875 0,-1.650319 -0.62395,-4.055315 0,-5.556249 M 51.610418,93.845832 c 1.148326,2.758181 2.717065,5.890628 5.030962,7.850528 6.176694,5.23176 17.56865,5.86064 24.602369,2.1181 2.226302,-1.18459 4.091966,-2.83712 5.796949,-4.676962 1.19874,-1.293558 1.986127,-2.845764 3.728051,-3.439583 0,5.899395 -1.407311,12.084015 -5.844717,16.358235 -7.435536,7.16207 -22.358486,6.56616 -29.298929,-1.01628 -3.196058,-3.49169 -4.615561,-7.84377 -5.225319,-12.431538 -0.212079,-1.595672 -0.664837,-4.193155 1.210634,-4.7625 z"
     id="path2" /><path
     d="m 122.96567,5.6624999 c 0.38898,0 0.77797,0 1.17874,0 0.0912,0.3768281 0.18233,0.7536561 0.27626,1.1419038 0.7491,2.222994 2.47417,3.7024263 4.12674,5.2951153 3.55957,3.441352 6.40645,6.984704 6.63739,12.159412 0.0459,2.820759 -0.45047,5.53863 -1.3158,8.219876 -0.19449,0.194489 -0.38898,0.388985 -0.58936,0.589369 0.0268,-0.179416 0.0536,-0.358833 0.0811,-0.543684 0.12269,-0.831416 0.24179,-1.663311 0.36087,-2.495251 0.0422,-0.282051 0.0843,-0.564102 0.12777,-0.854702 0.52152,-3.687863 0.70002,-7.116166 -1.33183,-10.360584 -0.64261,-0.740243 -1.24279,-1.038094 -2.21819,-1.124636 -1.50711,0.128492 -2.54269,0.442771 -3.61572,1.542616 -1.92146,2.320444 -1.80275,5.132003 -1.74383,7.982034 0.0152,0.743476 0.0228,1.486701 0.0285,2.230308 0.0134,1.576437 0.0361,3.152663 0.0601,4.728969 0.0279,1.832147 0.0519,3.664177 0.0659,5.496488 0.008,0.730465 0.0223,1.460561 0.0374,2.190904 0.004,0.44913 0.008,0.898263 0.0118,1.347396 0.006,0.201189 0.0122,0.402378 0.0184,0.60966 5.3e-4,1.460246 -0.41348,2.264619 -1.3123,3.395345 -2.49534,2.309199 -5.79357,2.82674 -9.08458,2.736197 -2.83434,-0.254815 -5.33144,-1.119016 -7.27042,-3.251893 -0.57879,-1.254038 -0.67896,-2.251798 -0.44203,-3.609888 0.94781,-1.971439 2.55012,-3.04578 4.56761,-3.757231 3.93886,-1.177666 7.72772,-0.874435 11.34112,1.075211 0.19589,0.1071 0.39178,0.214198 0.59361,0.324543 0.0165,-3.280145 -0.0218,-6.55529 -0.10915,-9.834269 -0.0205,-0.768239 -0.04,-1.536496 -0.0594,-2.304761 -0.0483,-1.906855 -0.0978,-3.813675 -0.1476,-5.720492 -0.0422,-1.61878 -0.0838,-3.237573 -0.12458,-4.85639 -0.019,-0.744827 -0.0389,-1.489626 -0.0588,-2.234428 -0.0869,-3.372938 -0.10387,-6.7431663 -0.0898,-10.1171381 z"
     fill="#ffffff"
     id="path3"
     style="stroke-width:0.294685" /><path
     d="m 39.082144,6.8541673 c 0.01378,4.0755347 0.02413,8.1510657 0.03054,12.2266197 0.0031,1.89248 0.0072,3.784945 0.01394,5.677416 0.0064,1.82664 0.0099,3.65325 0.01146,5.4799 0.0013,0.69659 0.0032,1.39318 0.0064,2.08977 0.0043,0.97632 0.0049,1.95258 0.0046,2.92891 0.0021,0.28742 0.0043,0.57484 0.0064,0.87098 -0.0058,1.91236 -0.06037,3.55869 -1.288904,5.11242 -2.730825,2.19653 -5.700324,2.46606 -9.098388,2.15488 -2.424387,-0.5248 -3.918227,-1.45706 -5.304326,-3.53621 -0.136636,-1.47568 -0.03627,-2.36201 0.884054,-3.53622 2.138449,-2.01964 4.657328,-2.44064 7.489134,-2.40237 2.106022,0.12407 3.705905,0.68252 5.476991,1.813 0.348729,-2.51307 0.360395,-5.02058 0.387927,-7.55244 0.0061,-0.47191 0.01225,-0.94382 0.01857,-1.41572 0.01617,-1.23387 0.03077,-2.467751 0.04504,-3.701642 0.01487,-1.262368 0.03125,-2.524717 0.04748,-3.787069 0.03153,-2.470845 0.06146,-4.941707 0.09033,-7.412586 -0.270195,0.09198 -0.540393,0.18396 -0.818777,0.278727 -2.588133,0.875356 -5.188971,1.681268 -7.815712,2.434445 -0.382098,0.110153 -0.764175,0.220366 -1.146236,0.330634 -0.789466,0.22763 -1.579113,0.454623 -2.368902,0.681121 -1.01266,0.29046 -2.024862,0.582482 -3.036944,0.87495 -0.783752,0.226323 -1.567721,0.45189 -2.35176,0.677218 -0.55482,0.159584 -1.109467,0.319769 -1.664111,0.479963 -0.500665,0.143312 -0.500665,0.143312 -1.011445,0.289518 -0.294226,0.08455 -0.588452,0.169103 -0.891595,0.256217 -0.701184,0.18027 -0.701184,0.18027 -1.290554,0.18027 0.0026,0.354182 0.0052,0.708363 0.0079,1.073277 0.0239,3.338633 0.04157,6.677247 0.05314,10.015947 0.0061,1.71645 0.01449,3.43282 0.02785,5.14923 0.01281,1.65658 0.01986,3.3131 0.02291,4.96973 0.0022,0.63187 0.0064,1.26373 0.01279,1.89557 0.0086,0.88541 0.0097,1.77054 0.0092,2.65598 0.0042,0.26092 0.0085,0.52185 0.01284,0.79069 -0.01075,1.6109 -0.253372,2.52363 -1.325398,3.8021 -1.898484,1.66117 -4.7732707,2.25096 -7.2635177,2.14682 -2.274409,-0.2758 -4.669827,-0.70147 -6.29197797,-2.4415 -0.710782,-1.14157 -0.992681,-1.96442 -0.755129,-3.27837 0.506701,-1.56233 1.50549697,-2.23706 2.89964997,-2.96642 2.899152,-1.25121 6.214696,-1.31026 9.1824217,-0.2567 1.261055,0.52435 1.261055,0.52435 1.639183,0.90248 0.003,-0.22272 0.0061,-0.44545 0.0092,-0.67492 0.02944,-2.14804 0.05971,-4.29606 0.09079,-6.44408 0.01594,-1.10307 0.03161,-2.20613 0.04655,-3.30922 0.08364,-6.15296 0.228871,-12.301005 0.44282,-18.450884 2.283448,-0.91693 4.642261,-1.571001 7.004517,-2.249273 0.450414,-0.130082 0.900802,-0.260252 1.351167,-0.390506 1.179053,-0.340776 2.358414,-0.680467 3.537858,-1.019894 1.66658,-0.4798397 3.332727,-0.9611857 4.998933,-1.4423337 0.886034,-0.255854 1.772184,-0.51131 2.658427,-0.766443 0.403445,-0.116283 0.806895,-0.232566 1.210337,-0.34885 0.352144,-0.10138 0.704292,-0.20276 1.067104,-0.307212 1.865905,-0.54792 1.865905,-0.54792 2.925167,-0.54792 z"
     fill="#ffffff"
     id="path2-9"
     style="display:inline;stroke-width:0.294685" /></svg>
