<?xml version="1.0" encoding="UTF-8" standalone="no"?>
<svg
   viewBox="0 0 51.2 51.2"
   fill="none"
   version="1.1"
   id="svg1"
   sodipodi:docname="icon_monochrome.svg"
   inkscape:version="1.3.2 (091e20e, 2023-11-25, custom)"
   width="512"
   height="512"
   xmlns:inkscape="http://www.inkscape.org/namespaces/inkscape"
   xmlns:sodipodi="http://sodipodi.sourceforge.net/DTD/sodipodi-0.dtd"
   xmlns="http://www.w3.org/2000/svg"
   xmlns:svg="http://www.w3.org/2000/svg">
  <defs
     id="defs1" />
  <sodipodi:namedview
     id="namedview1"
     pagecolor="#ffffff"
     bordercolor="#000000"
     borderopacity="0.25"
     inkscape:showpageshadow="2"
     inkscape:pageopacity="0.0"
     inkscape:pagecheckerboard="0"
     inkscape:deskcolor="#d1d1d1"
     inkscape:zoom="1.7324219"
     inkscape:cx="250.80496"
     inkscape:cy="256"
     inkscape:window-width="1920"
     inkscape:window-height="1129"
     inkscape:window-x="-8"
     inkscape:window-y="-8"
     inkscape:window-maximized="1"
     inkscape:current-layer="svg1" />
  <path
     d="M 21.309699,48.667363 C 15.912265,47.820229 10.608983,45.222103 6.9939244,41.654097 5.755328,40.431518 5.6706611,40.310865 5.7105303,39.82267 c 0.074066,-0.90688 -0.061117,-0.892234 8.2116437,-0.891769 8.235589,0 8.623355,0.03417 10.322736,0.898511 0.709975,0.361264 1.316731,0.869916 2.516295,2.110163 2.186415,2.260109 3.43875,2.833389 5.837413,2.672052 1.432271,-0.09624 2.53745,-0.520276 3.66704,-1.406465 3.546153,-2.78271 3.546153,-8.417406 0,-11.200116 -1.213513,-0.952212 -2.226168,-1.319986 -3.874639,-1.406698 -2.327293,-0.122746 -3.625659,0.504235 -5.754187,2.778525 -0.950585,1.015677 -1.533164,1.501547 -2.272663,1.895125 -1.808644,0.962906 -1.518284,0.938496 -11.223362,0.938496 H 4.3325195 L 3.5511523,35.828773 C 2.5756231,35.351969 2.0712715,34.830531 1.546253,33.756037 0.49303106,31.600077 8.6107403e-4,29.080527 9.2150507e-7,25.839844 -9.0805049e-4,22.483623 0.67071067,19.091042 1.7012199,17.246224 2.1819754,16.38556 3.1025478,15.653175 4.089259,15.346333 c 0.9813643,-0.305145 17.202074,-0.286826 18.465104,0.02088 1.59686,0.389021 2.522105,0.993104 4.15407,2.712061 1.172365,1.235086 1.692176,1.669719 2.42842,2.031262 2.729241,1.34021 5.652365,0.813495 7.789263,-1.403514 1.537115,-1.594513 2.094122,-3.158084 1.964402,-5.511973 C 38.82682,12.043138 38.750569,11.74971 38.234477,10.673473 36.664583,7.4002205 33.066355,5.8751701 29.833809,7.1130226 28.617275,7.5788765 28.025397,8.027388 26.495255,9.6425917 25.009051,11.211324 24.0222,11.856462 22.584352,12.198756 c -0.393811,0.0938 -3.605597,0.152619 -8.452975,0.15485 -8.6784275,0.004 -8.4483716,0.02911 -8.4499989,-0.922176 C 5.6807039,11.035341 5.8640094,10.78069 6.8640413,9.7883759 9.679553,6.9946005 13.652435,4.6771404 17.677646,3.4805752 c 2.429025,-0.7220632 4.22486,-0.9852233 7.254921,-1.0630788 3.227664,-0.082947 5.12093,0.1181199 7.891318,0.8380676 7.950367,2.0662026 14.352691,7.531007 17.111689,14.60625 0.575372,1.475603 1.20863,3.83721 1.20863,4.507664 0,0.755307 -0.41822,1.447614 -1.054733,1.746342 -0.547708,0.257116 -1.181896,0.271762 -11.73155,0.272459 -12.275074,6.98e-4 -12.280654,4.65e-4 -14.064656,-0.897348 -0.706953,-0.355917 -1.274188,-0.833418 -2.419818,-2.037399 -1.556295,-1.635708 -2.382808,-2.203781 -3.760238,-2.584526 -0.952351,-0.263253 -2.520828,-0.250909 -3.557382,0.02799 -3.228384,0.868591 -5.4776136,4.470259 -4.9224665,7.882275 0.6720815,4.130591 4.6007935,6.799389 8.4748735,5.756745 1.382172,-0.371958 2.182184,-0.921991 3.769863,-2.591384 1.181896,-1.242572 1.68613,-1.662419 2.427721,-2.020894 1.826778,-0.8834 1.807715,-0.882237 14.12324,-0.884794 12.6375,-0.0026 11.946821,-0.06277 12.490809,1.088906 0.24526,0.519114 0.256419,0.678823 0.108333,1.571057 -0.415895,2.505601 -1.902564,6.032227 -3.524068,8.358823 -3.923691,5.630744 -10.395525,9.549088 -17.546414,10.623349 -1.936273,0.290824 -6.755684,0.283153 -8.648019,-0.01372 z"
     fill="#4AAA42"
     id="path1"
     style="fill:#ffffff;fill-opacity:1;stroke-width:2.32474" />
</svg>
