<?xml version="1.0" encoding="UTF-8" standalone="no"?>
<svg
   version="1.2"
   viewBox="0 0 1280 1280"
   width="512"
   height="512"
   id="svg1"
   sodipodi:docname="icon_monochrome.svg"
   inkscape:version="1.3.2 (091e20e, 2023-11-25, custom)"
   xmlns:inkscape="http://www.inkscape.org/namespaces/inkscape"
   xmlns:sodipodi="http://sodipodi.sourceforge.net/DTD/sodipodi-0.dtd"
   xmlns="http://www.w3.org/2000/svg"
   xmlns:svg="http://www.w3.org/2000/svg"
   xmlns:rdf="http://www.w3.org/1999/02/22-rdf-syntax-ns#"
   xmlns:cc="http://creativecommons.org/ns#"
   xmlns:dc="http://purl.org/dc/elements/1.1/">
  <defs
     id="defs1" />
  <sodipodi:namedview
     id="namedview1"
     pagecolor="#ffffff"
     bordercolor="#000000"
     borderopacity="0.25"
     inkscape:showpageshadow="2"
     inkscape:pageopacity="0.0"
     inkscape:pagecheckerboard="0"
     inkscape:deskcolor="#d1d1d1"
     inkscape:zoom="1.7324219"
     inkscape:cx="256"
     inkscape:cy="256"
     inkscape:window-width="1920"
     inkscape:window-height="1129"
     inkscape:window-x="-8"
     inkscape:window-y="-8"
     inkscape:window-maximized="1"
     inkscape:current-layer="svg1" />
  <title
     id="title1">Deezer_logo,_2023-svg</title>
  <style
     id="style1">
		.s0 { fill: #a238ff }
	</style>
  <path
     id="Layer"
     fill-rule="evenodd"
     class="s0"
     d="m 1074.0953,195.10318 c 11.7974,-68.54977 29.2252,-111.717352 48.4406,-111.806726 h 0.089 c 35.9284,0.178748 64.9749,149.701246 64.9749,334.347676 0,184.73581 -29.1359,334.34768 -65.0642,334.34768 -14.7467,0 -28.3315,-25.38219 -39.3245,-68.01353 -17.2491,155.95742 -53.1775,263.1167 -94.73632,263.1167 -32.17459,0 -61.04235,-64.3492 -80.43648,-165.87791 -13.22734,193.04757 -46.56379,330.05773 -85.44143,330.05773 -24.39907,0 -46.74254,-54.2499 -63.18733,-142.64071 -19.84101,182.41211 -65.6898,310.30611 -119.04601,310.30611 -53.44557,0 -99.29437,-127.8047 -119.046,-310.30611 -16.35542,88.39081 -38.6989,142.64071 -63.18733,142.64071 -38.96702,0 -72.2141,-137.01016 -85.44143,-330.05773 -19.39414,101.52871 -48.17252,165.87791 -80.43649,165.87791 -41.55885,0 -77.48716,-107.15928 -94.82569,-263.1167 -10.81424,42.72072 -24.48844,68.01353 -39.23512,68.01353 -36.01768,0 -65.153563,-149.61187 -65.153563,-334.34768 0,-184.64643 29.135883,-334.347676 65.153563,-334.347676 19.30475,0 36.55391,43.256956 48.53001,111.806726 C 225.84779,76.861535 257.03927,0 292.25258,0 c 41.82698,0 78.0234,108.67864 95.18318,266.51291 16.80229,-114.84544 42.18447,-188.042645 70.69474,-188.042645 39.95012,0 73.91219,143.981315 86.51391,344.893785 23.5947,-102.9587 57.91427,-167.57601 95.80879,-167.57601 37.89453,0 72.12472,64.61731 95.71943,167.57601 12.60171,-200.91247 46.56379,-344.893785 86.51391,-344.893785 28.4209,0 53.80307,73.197205 70.69474,188.042645 C 910.45169,108.67864 946.73749,0 988.56446,0 1023.599,0 1054.8799,76.861535 1074.0953,195.10318 Z M 36.911411,534.27704 C 16.534168,534.27704 0,467.42538 0,384.75454 0,302.0837 16.534168,235.32142 36.911411,235.32142 c 20.466619,0 37.000785,66.76228 37.000785,149.43312 0,82.67084 -16.534166,149.5225 -37.000785,149.5225 z m 1206.815489,0 c -20.4667,0 -36.9115,-66.85166 -36.9115,-149.5225 0,-82.67084 16.4448,-149.43312 36.9115,-149.43312 20.3772,0 36.9114,66.76228 36.9114,149.43312 0,82.67084 -16.5342,149.5225 -36.9114,149.5225 z"
     style="fill:#ffffff;fill-opacity:1;stroke-width:0.893739" />
  <metadata
     id="metadata1">
    <rdf:RDF>
      <cc:Work
         rdf:about="">
        <dc:title>Deezer_logo,_2023-svg</dc:title>
      </cc:Work>
    </rdf:RDF>
  </metadata>
</svg>
