<?xml version="1.0" encoding="UTF-8" standalone="no"?>
<svg
   version="1.1"
   width="512"
   height="512"
   id="svg1"
   sodipodi:docname="icon_monochrome.svg"
   inkscape:version="1.3.2 (091e20e, 2023-11-25, custom)"
   xmlns:inkscape="http://www.inkscape.org/namespaces/inkscape"
   xmlns:sodipodi="http://sodipodi.sourceforge.net/DTD/sodipodi-0.dtd"
   xmlns="http://www.w3.org/2000/svg"
   xmlns:svg="http://www.w3.org/2000/svg">
  <defs
     id="defs1" />
  <sodipodi:namedview
     id="namedview1"
     pagecolor="#ffffff"
     bordercolor="#000000"
     borderopacity="0.25"
     inkscape:showpageshadow="2"
     inkscape:pageopacity="0.0"
     inkscape:pagecheckerboard="0"
     inkscape:deskcolor="#d1d1d1"
     inkscape:zoom="1.7324219"
     inkscape:cx="256"
     inkscape:cy="256.57722"
     inkscape:window-width="1920"
     inkscape:window-height="1129"
     inkscape:window-x="-8"
     inkscape:window-y="-8"
     inkscape:window-maximized="1"
     inkscape:current-layer="svg1" />
  <path
     d="m 377.74202,7.5187189 c 6.77595,6.9453481 5.40048,15.3697321 5.29855,24.4566661 -0.32753,12.63345 -1.90257,34.241953 -11.39486,43.618755 -2.01226,0.317516 -2.01226,0.317516 -4.25471,0 -0.72691,-0.08382 -1.45383,-0.167648 -2.20277,-0.254012 -3.11184,-0.882532 -5.73655,-2.234027 -8.60145,-3.716921 -3.71785,-1.862884 -7.55688,-3.391865 -11.4219,-4.919513 -0.77603,-0.32089 -1.55206,-0.64178 -2.3516,-0.972393 -6.89269,-2.724059 -11.98463,-3.105638 -18.92197,-0.297671 -8.28482,1.445868 -8.28482,1.445868 -11.17656,0 -1.88077,-0.126167 -3.76683,-0.178473 -5.65178,-0.19051 -1.0072,-0.01441 -2.01441,-0.02882 -3.05212,-0.04366 -3.56979,0.239611 -6.7981,0.88682 -10.26891,1.711361 -2.26906,0.532566 -4.54019,0.991039 -6.82933,1.428078 -8.59854,1.705901 -15.98318,3.713301 -23.69462,7.997433 -2.32184,1.28991 -2.32184,1.28991 -5.37,2.305961 -1.13161,2.345463 -1.13161,2.345463 -2.0321,5.080255 -0.74543,1.632391 -1.50535,3.258232 -2.27817,4.877839 -0.43353,0.909623 -0.86706,1.819247 -1.31372,2.756435 -0.44925,0.938438 -0.8985,1.876876 -1.36136,2.843753 -0.66208,1.389976 -0.66208,1.389976 -1.33753,2.808032 -2.00337,4.196233 -4.02816,8.371543 -6.15981,12.504173 -1.38651,2.7566 -2.34743,5.24441 -2.85368,8.31098 -0.48065,2.8569 -1.16818,4.98313 -2.38137,7.65214 -2.1405,4.83993 -3.05172,9.91595 -4.09595,15.082 -1.376,6.69468 -2.8522,13.34449 -4.54048,19.96778 -1.51397,5.95043 -2.90001,11.918 -4.19518,17.91981 -0.2549,1.17655 -0.2549,1.17655 -0.51495,2.37686 -0.69391,3.20947 -1.38535,6.4194 -2.0661,9.6317 -0.50817,2.39146 -1.02662,4.78051 -1.54665,7.16941 -0.22398,1.07645 -0.22398,1.07645 -0.45248,2.17464 -0.96263,4.37781 -2.48321,7.97871 -4.52856,11.94688 -0.47768,3.60941 -0.47768,3.60941 -0.38102,7.30287 -0.008,1.22986 -0.0157,2.45972 -0.0238,3.72684 0.12861,3.12237 0.12861,3.12237 1.69871,4.92498 2.22169,1.6694 3.12076,1.59206 5.8423,1.21895 5.50025,-0.82025 10.62423,-2.56019 15.85199,-4.4095 8.34547,-2.89111 16.34021,-5.61402 25.14726,-6.73134 4.20304,-0.19135 4.20304,-0.19135 7.74739,-1.96859 1.1945,-0.10479 2.38899,-0.20956 3.61968,-0.31752 8.03293,-0.79034 15.96577,-3.09754 23.70927,-5.31467 2.51082,-0.54543 4.87038,-0.64648 7.43905,-0.71416 1.02471,-0.0322 2.04943,-0.0643 3.10521,-0.0974 1.62205,-0.048 1.62205,-0.048 3.27686,-0.097 9.64183,-0.29643 9.64183,-0.29643 19.17796,-1.65109 14.13021,-2.751 30.22644,-2.28848 42.57889,5.6756 5.50866,4.73245 5.50866,4.73245 6.1484,8.64883 0.1013,2.49829 0.0679,4.95838 -0.0203,7.45717 -0.0201,0.9011 -0.0402,1.80222 -0.0611,2.73064 -0.0464,1.82831 -0.10289,3.65641 -0.16967,5.48409 -0.0771,2.29364 -0.10518,4.58053 -0.1146,6.87521 -0.25082,9.69179 -2.72823,17.02386 -8.36257,24.93294 -4.26148,3.01935 -9.17577,2.35547 -14.06596,1.55187 -1.87303,-0.36257 -3.74375,-0.73725 -5.6121,-1.12322 -1.41452,-0.2721 -1.41452,-0.2721 -2.85764,-0.5497 -4.4826,-0.88945 -8.54242,-1.93416 -12.76414,-3.70501 -12.90432,-3.48958 -23.6031,-2.70354 -36.57784,0 -4.26168,0.8228 -8.17088,1.10082 -12.51013,1.01605 -8.00941,-0.0545 -15.36451,0.83962 -23.17867,2.51235 -3.54232,0.64974 -7.08982,1.02366 -10.66853,1.42485 -6.11665,0.7723 -10.35475,2.0673 -15.62179,5.20726 -4.53284,1.51095 -9.15408,0.98338 -13.88339,0.79776 -4.6958,-0.0903 -7.76148,0.12472 -11.51789,3.26644 -6.62449,8.88575 -8.36868,20.47474 -10.57626,31.07241 -0.6003,2.45728 -0.6003,2.45728 -1.67688,5.4015 -1.03402,3.41105 -1.15859,6.09443 -1.08253,9.64925 0.0236,1.83399 0.0236,1.83399 0.0476,3.70502 0.0527,2.54277 0.10559,5.08555 0.15876,7.62832 0.0891,6.95134 -0.29269,13.06325 -2.11148,19.76338 -1.62693,8.50621 -2.09902,16.62669 -1.92412,25.24296 0.0455,5.61414 -0.54604,10.86658 -1.53681,16.38339 -1.58015,9.41207 -2.51886,18.77671 -3.20691,28.29067 -0.0626,0.81805 -0.12526,1.6361 -0.18979,2.47895 -0.80682,10.54522 -1.38898,21.08486 -1.77087,31.65401 -0.0393,1.05221 -0.0786,2.1044 -0.11911,3.18848 -0.18961,5.14734 -0.35717,10.29386 -0.48838,15.44301 -0.53533,17.47582 -0.53533,17.47582 -4.98873,25.66199 -0.37721,1.02684 -0.75441,2.05369 -1.14305,3.11166 -2.7977,2.89096 -5.47185,2.8637 -9.39451,3.05212 -5.90337,-0.14912 -11.0615,-1.31577 -15.55431,-5.47715 -4.73155,-6.00547 -5.80261,-12.58226 -5.40568,-19.99161 -0.3353,-0.67059 -0.6706,-1.34119 -1.01605,-2.0321 -0.14765,-2.44319 -0.23828,-4.8613 -0.28577,-7.30684 -0.0185,-0.7402 -0.037,-1.4804 -0.056,-2.24303 -0.0599,-2.42607 -0.11329,-4.85224 -0.16627,-7.27848 -0.078,-3.35912 -0.15911,-6.71816 -0.24211,-10.07716 -0.0204,-0.83466 -0.0407,-1.66932 -0.0617,-2.52928 -0.15154,-5.89324 -0.42119,-11.77387 -0.74025,-17.66052 -0.51575,-9.75201 -0.29403,-19.07256 0.77072,-28.77836 0.76614,-7.25599 0.98117,-14.43582 0.97189,-21.73074 5.8e-4,-1.0144 0.001,-2.02881 0.002,-3.07395 -0.0375,-5.19981 -0.30175,-10.28385 -0.83124,-15.45707 -0.62677,-7.5658 0.37412,-14.7008 1.52804,-22.17452 0.18991,-1.32024 0.37983,-2.64047 0.5755,-4.00071 1.39853,-9.54178 1.39853,-9.54178 2.59966,-13.14516 0.0947,-1.43691 0.13204,-2.87819 0.12701,-4.31821 0.003,-0.7387 0.005,-1.4774 0.008,-2.2385 -0.0883,-2.7174 -0.0883,-2.7174 -0.71838,-5.87007 -0.59934,-5.30608 0.21722,-10.17718 1.00613,-15.42929 0.6448,-4.8504 0.56385,-8.16743 -1.43875,-12.78597 -5.93404,-1.54801 -9.18635,-0.41785 -14.72083,2.04004 -3.58173,1.41488 -6.85464,1.74078 -10.68042,2.02417 -0.85991,-2.91958 -1.25106,-4.51289 -0.0675,-7.37035 0.75638,-1.16109 0.75638,-1.16109 1.52805,-2.34564 0.86051,-1.3222 0.86051,-1.3222 1.7384,-2.67111 0.62082,-0.94171 1.24164,-1.88342 1.88128,-2.85367 0.86837,-1.49116 0.86837,-1.49116 1.75427,-3.01243 4.14853,-6.85831 8.55318,-11.21049 14.91904,-15.85471 8.93962,-6.54168 11.02948,-13.01171 12.79217,-23.80701 1.1931,-9.28025 1.94022,-18.61975 2.77057,-27.93792 2.71695,-30.14424 2.71695,-30.14424 7.50281,-41.89277 1.64858,-4.21449 1.29576,-8.24355 -0.11287,-12.46944 -1.4357,-23.87208 6.96964,-49.41161 18.28892,-70.107524 0.47806,-0.881464 0.95612,-1.762928 1.44867,-2.671103 7.21447,-12.577442 16.10007,-24.274822 25.60369,-35.192675 1.55565,-1.791048 3.07418,-3.615367 4.54444,-5.47715 14.46621,-17.822831 41.4028,-30.2597966 63.58264,-34.6609054 4.49156,-0.4453806 8.99138,-0.3193063 13.4984,-0.2063854 3.13508,0.1301496 3.13508,0.1301496 6.13599,-1.0438337 1.52179,-0.093733 3.04758,-0.1320885 4.57223,-0.1270064 0.78586,-0.00262 1.57171,-0.00524 2.38137,-0.00794 2.19086,0.1349417 2.19086,0.1349417 5.23902,1.1509928 4.76782,0.4145924 8.57771,-0.3179813 13.20866,-1.5240766 14.59752,-3.5114299 32.64803,-2.56154321 45.7223,5.5882809 z"
     fill="#ffffff"
     id="path1"
     style="stroke-width:1.01605" />
</svg>
