<?xml version="1.0" encoding="UTF-8" standalone="no"?>
<svg
   version="1.1"
   width="512"
   height="512"
   id="svg1"
   sodipodi:docname="icon.svg"
   inkscape:version="1.3.2 (091e20e, 2023-11-25, custom)"
   xmlns:inkscape="http://www.inkscape.org/namespaces/inkscape"
   xmlns:sodipodi="http://sodipodi.sourceforge.net/DTD/sodipodi-0.dtd"
   xmlns="http://www.w3.org/2000/svg"
   xmlns:svg="http://www.w3.org/2000/svg">
  <defs
     id="defs1" />
  <sodipodi:namedview
     id="namedview1"
     pagecolor="#ffffff"
     bordercolor="#000000"
     borderopacity="0.25"
     inkscape:showpageshadow="2"
     inkscape:pageopacity="0.0"
     inkscape:pagecheckerboard="0"
     inkscape:deskcolor="#d1d1d1"
     inkscape:zoom="1.7402344"
     inkscape:cx="255.71268"
     inkscape:cy="256"
     inkscape:window-width="1920"
     inkscape:window-height="1129"
     inkscape:window-x="-8"
     inkscape:window-y="-8"
     inkscape:window-maximized="1"
     inkscape:current-layer="svg1" />
  <path
     d="M0 0 C6.66890614 6.83562879 5.31516901 15.12692942 5.21484375 24.0703125 C4.89248408 36.50418536 3.34232512 57.77132847 -6 67 C-7.98046875 67.3125 -7.98046875 67.3125 -10.1875 67 C-10.90292969 66.9175 -11.61835938 66.835 -12.35546875 66.75 C-15.41815252 65.88141022 -18.00140718 64.55126539 -20.82104492 63.09179688 C-24.48016413 61.25834241 -28.2585429 59.75351485 -32.0625 58.25 C-32.82626953 57.93417969 -33.59003906 57.61835937 -34.37695312 57.29296875 C-41.16076077 54.61194297 -46.17226265 54.23639203 -53 57 C-61.15394567 58.42302717 -61.15394567 58.42302717 -64 57 C-65.85105945 56.87582597 -67.70731809 56.82434663 -69.5625 56.8125 C-70.55378906 56.79832031 -71.54507813 56.78414062 -72.56640625 56.76953125 C-76.0798059 57.00535671 -79.25711614 57.64234224 -82.6730957 58.45385742 C-84.90630699 58.97800952 -87.14155092 59.42923996 -89.39453125 59.859375 C-97.8572444 61.53832746 -105.12522749 63.51401527 -112.71484375 67.73046875 C-115 69 -115 69 -118 70 C-119.11374785 72.30841072 -119.11374785 72.30841072 -120 75 C-120.73366177 76.60660335 -121.48157558 78.2067601 -122.2421875 79.80078125 C-122.66886719 80.69603516 -123.09554687 81.59128906 -123.53515625 82.51367188 C-123.97730469 83.43728516 -124.41945313 84.36089844 -124.875 85.3125 C-125.52662109 86.68051758 -125.52662109 86.68051758 -126.19140625 88.07617188 C-128.16312019 92.20611324 -130.15593229 96.31546691 -132.25390625 100.3828125 C-133.61851313 103.09586282 -134.56425121 105.54437228 -135.0625 108.5625 C-135.53555803 111.37427187 -136.21223075 113.46690765 -137.40625 116.09375 C-139.51293957 120.8572269 -140.40975873 125.85306382 -141.4375 130.9375 C-142.79176338 137.52642454 -144.24464384 144.07117726 -145.90625 150.58984375 C-147.39630458 156.4462616 -148.76044701 162.31955794 -150.03515625 168.2265625 C-150.28603249 169.3845208 -150.28603249 169.3845208 -150.54197693 170.56587219 C-151.22492628 173.724644 -151.90543662 176.88386421 -152.57543945 180.04541016 C-153.07557886 182.39909148 -153.5858352 184.75039781 -154.09765625 187.1015625 C-154.31809349 188.16100571 -154.31809349 188.16100571 -154.54298401 189.24185181 C-155.49040697 193.55050262 -156.98696498 197.09452331 -159 201 C-159.4701421 204.55239339 -159.4701421 204.55239339 -159.375 208.1875 C-159.38273437 209.39792969 -159.39046875 210.60835937 -159.3984375 211.85546875 C-159.27185972 214.92850653 -159.27185972 214.92850653 -157.7265625 216.70263672 C-155.5399721 218.34567142 -154.65510504 218.26954847 -151.9765625 217.90234375 C-146.56320231 217.09504985 -141.52017303 215.38258642 -136.375 213.5625 C-128.16136245 210.71706128 -120.29292427 208.03716203 -111.625 206.9375 C-107.48836389 206.74917434 -107.48836389 206.74917434 -104 205 C-102.824375 204.896875 -101.64875 204.79375 -100.4375 204.6875 C-92.53147639 203.90964929 -84.72395109 201.63888704 -77.1027832 199.45678711 C-74.63162514 198.91997801 -72.30934294 198.82051764 -69.78125 198.75390625 C-68.77271973 198.72224365 -67.76418945 198.69058105 -66.72509766 198.65795898 C-65.12867432 198.61070679 -65.12867432 198.61070679 -63.5 198.5625 C-54.01047842 198.27076235 -54.01047842 198.27076235 -44.625 196.9375 C-30.71801715 194.22994582 -14.87606247 194.68517025 -2.71875 202.5234375 C2.70288825 207.18111763 2.70288825 207.18111763 3.33251953 211.03564453 C3.43220834 213.4944612 3.39933725 215.91569483 3.3125 218.375 C3.29268066 219.261875 3.27286133 220.14875 3.25244141 221.0625 C3.20674252 222.86193434 3.15116382 224.66114635 3.08544922 226.45996094 C3.00950793 228.71737005 2.98192551 230.96813438 2.97265625 233.2265625 C2.72579603 242.76524127 0.28752643 249.98148465 -5.2578125 257.765625 C-9.45197008 260.73727028 -14.28862546 260.08388113 -19.1015625 259.29296875 C-20.94500215 258.9361315 -22.78616862 258.56737063 -24.625 258.1875 C-26.0171875 257.91969727 -26.0171875 257.91969727 -27.4375 257.64648438 C-31.84928688 256.77107967 -35.84497334 255.74288031 -40 254 C-52.70046593 250.56554729 -63.23022884 251.33917125 -76 254 C-80.19435411 254.80980104 -84.04180346 255.08343241 -88.3125 255 C-96.19537937 254.94637497 -103.43429558 255.82636483 -111.125 257.47265625 C-114.61136681 258.11213929 -118.10282502 258.480153 -121.625 258.875 C-127.64502134 259.6351037 -131.8161686 260.90963897 -137 264 C-141.46124417 265.48708139 -146.00946909 264.96784507 -150.6640625 264.78515625 C-155.28568106 264.69627897 -158.30293976 264.90791326 -162 268 C-168.519846 276.74537036 -170.23648147 288.15128532 -172.40917969 298.58154297 C-173 301 -173 301 -174.05957031 303.89770508 C-175.07726055 307.25486754 -175.1998657 309.89585959 -175.125 313.39453125 C-175.10179687 315.19954102 -175.10179687 315.19954102 -175.078125 317.04101562 C-175.02628431 319.54362483 -174.97420326 322.04622907 -174.921875 324.54882812 C-174.83420997 331.3903532 -175.20994078 337.40571285 -177 344 C-178.60122393 352.3718313 -179.06585738 360.36403127 -178.89372253 368.84417725 C-178.84889259 374.36962977 -179.43113954 379.53909794 -180.40625 384.96875 C-181.96144248 394.23214432 -182.88532452 403.44883986 -183.5625 412.8125 C-183.62414337 413.61763031 -183.68578674 414.42276062 -183.7492981 415.25228882 C-184.54337058 425.6309157 -185.11633555 436.00405539 -185.4921875 446.40625 C-185.53087448 447.44182541 -185.56956146 448.47740082 -185.60942078 449.5443573 C-185.79603274 454.61037779 -185.96094779 459.67559586 -186.09008789 464.7434082 C-186.61695347 481.94314508 -186.61695347 481.94314508 -191 490 C-191.37125 491.010625 -191.7425 492.02125 -192.125 493.0625 C-194.87850415 495.90778762 -197.5104032 495.88095823 -201.37109375 496.06640625 C-207.18120918 495.91964256 -212.25784891 494.77141863 -216.6796875 490.67578125 C-221.33651685 484.76519016 -222.39065878 478.29229714 -222 471 C-222.33 470.34 -222.66 469.68 -223 469 C-223.14531256 466.59541421 -223.2345095 464.21549519 -223.28125 461.80859375 C-223.29943283 461.08008713 -223.31761566 460.35158051 -223.33634949 459.60099792 C-223.39529049 457.21324786 -223.44784894 454.82540729 -223.5 452.4375 C-223.57673769 449.13144236 -223.65658968 445.82547002 -223.73828125 442.51953125 C-223.75832718 441.69805603 -223.77837311 440.87658081 -223.79902649 440.0302124 C-223.94817281 434.23006951 -224.21356268 428.44233543 -224.52758789 422.64868164 C-225.03519061 413.05072784 -224.81696377 403.87742057 -223.76904297 394.32495117 C-223.01500536 387.1835813 -222.80336964 380.11718207 -222.8125 372.9375 C-222.81193604 371.93912109 -222.81137207 370.94074219 -222.81079102 369.91210938 C-222.84767283 364.7944398 -223.10777835 359.79071608 -223.62890625 354.69921875 C-224.24577437 347.25293759 -223.26068975 340.23065942 -222.125 332.875 C-221.93808594 331.575625 -221.75117188 330.27625 -221.55859375 328.9375 C-220.18215155 319.54645466 -220.18215155 319.54645466 -219 316 C-218.90681545 314.58578743 -218.87004451 313.16727062 -218.875 311.75 C-218.87242187 311.02296875 -218.86984375 310.2959375 -218.8671875 309.546875 C-218.95409002 306.87238711 -218.95409002 306.87238711 -219.57421875 303.76953125 C-220.16409116 298.54726634 -219.3604274 293.75312163 -218.58398438 288.58398438 C-217.94936716 283.81020774 -218.02903608 280.54558099 -220 276 C-225.84030239 274.47644286 -229.04122623 275.58875284 -234.48828125 278.0078125 C-238.01345369 279.40033785 -241.23466293 279.72108614 -245 280 C-245.84632514 277.12654877 -246.23129878 275.55840753 -245.06640625 272.74609375 C-244.32197266 271.60333984 -244.32197266 271.60333984 -243.5625 270.4375 C-242.71558594 269.13619141 -242.71558594 269.13619141 -241.8515625 267.80859375 C-241.24054688 266.88175781 -240.62953125 265.95492188 -240 265 C-239.14535156 263.53240234 -239.14535156 263.53240234 -238.2734375 262.03515625 C-234.19044535 255.28518837 -229.855377 251.00177186 -223.59008789 246.4309082 C-214.79169045 239.992582 -212.73484314 233.62476458 -211 223 C-209.82574352 213.86635398 -209.09042873 204.67438505 -208.27319336 195.50341797 C-205.59916427 165.83539072 -205.59916427 165.83539072 -200.88891602 154.27246094 C-199.2663765 150.12453515 -199.61362425 146.15912725 -201 142 C-202.41302252 118.50503733 -194.14046058 93.36896939 -183 73 C-182.52949219 72.13246094 -182.05898437 71.26492187 -181.57421875 70.37109375 C-174.47371738 57.99234358 -165.72848943 46.47975274 -156.375 35.734375 C-154.84392248 33.97162127 -153.34937894 32.1761223 -151.90234375 30.34375 C-137.66473174 12.80254423 -111.1536761 0.56205066 -89.32421875 -3.76953125 C-84.9036234 -4.207876 -80.4748807 -4.08379331 -76.0390625 -3.97265625 C-72.95351248 -3.84456273 -72.95351248 -3.84456273 -70 -5 C-68.50225982 -5.09225211 -67.00057026 -5.1300019 -65.5 -5.125 C-64.7265625 -5.12757813 -63.953125 -5.13015625 -63.15625 -5.1328125 C-61 -5 -61 -5 -58 -4 C-53.30750616 -3.59195706 -49.55779339 -4.31295799 -45 -5.5 C-30.63308846 -8.9559581 -12.86773511 -8.02107717 0 0 Z "
     fill="#FFFFFF"
     transform="translate(359,11)"
     id="path1"
     style="fill:#2500ff;fill-opacity:1" />
</svg>
