<?xml version="1.0" encoding="UTF-8" standalone="no"?>
<!-- Created with Inkscape (http://www.inkscape.org/) -->

<svg
   width="512"
   height="512"
   viewBox="0 0 135.46666 135.46667"
   version="1.1"
   id="svg1"
   xml:space="preserve"
   inkscape:version="1.3.2 (091e20e, 2023-11-25, custom)"
   sodipodi:docname="fully_kiosk_blue.svg"
   xmlns:inkscape="http://www.inkscape.org/namespaces/inkscape"
   xmlns:sodipodi="http://sodipodi.sourceforge.net/DTD/sodipodi-0.dtd"
   xmlns="http://www.w3.org/2000/svg"
   xmlns:svg="http://www.w3.org/2000/svg"><sodipodi:namedview
     id="namedview1"
     pagecolor="#ffffff"
     bordercolor="#000000"
     borderopacity="0.25"
     inkscape:showpageshadow="2"
     inkscape:pageopacity="0.0"
     inkscape:pagecheckerboard="0"
     inkscape:deskcolor="#d1d1d1"
     inkscape:document-units="mm"
     inkscape:zoom="1.4142136"
     inkscape:cx="211.07137"
     inkscape:cy="243.59829"
     inkscape:window-width="1920"
     inkscape:window-height="1129"
     inkscape:window-x="-8"
     inkscape:window-y="-8"
     inkscape:window-maximized="1"
     inkscape:current-layer="layer1" /><defs
     id="defs1" /><g
     inkscape:label="Layer 1"
     inkscape:groupmode="layer"
     id="layer1"><path
       style="fill:#0000ff;stroke-width:1.07986;fill-opacity:1"
       d="m 38.811731,134.44732 c -0.657173,-0.3253 -1.473143,-1.06888 -1.906717,-1.73754 -0.471818,-0.72766 -0.867493,-1.88804 -1.048192,-3.07398 -0.15965,-1.04779 -0.388848,-4.73365 -0.509329,-8.19079 -0.12048,-3.45714 -0.224691,-7.25 -0.23158,-8.42856 -0.0069,-1.17857 0.166406,-4.25234 0.385097,-6.8306 0.322786,-3.80546 0.331759,-5.20458 0.04767,-7.433724 -0.317814,-2.493843 -0.291399,-3.112768 0.287695,-6.740815 0.408763,-2.560918 0.674148,-5.687001 0.739352,-8.709123 0.05594,-2.592855 0.108879,-5.151929 0.117641,-5.68683 0.0088,-0.534902 -0.170993,-1.159473 -0.399455,-1.387935 -0.363371,-0.363371 -0.733951,-0.304198 -2.959452,0.472549 -1.399236,0.488365 -2.818551,0.887934 -3.154032,0.887934 -0.358642,0 -0.68455,-0.234989 -0.79098,-0.570318 -0.127902,-0.402982 0.375124,-1.49335 1.714421,-3.716203 1.674414,-2.779055 2.155359,-3.343749 4.124533,-4.842753 1.604386,-1.221315 2.351613,-2.003058 2.666248,-2.789412 0.240432,-0.600898 0.634626,-2.375727 0.875988,-3.944063 0.241362,-1.568336 0.588114,-4.715805 0.770562,-6.994373 0.182447,-2.27857 0.522429,-5.171425 0.755517,-6.428567 0.233087,-1.257143 0.669016,-3.016082 0.96873,-3.908756 0.448127,-1.334714 0.49549,-1.883755 0.266612,-3.090625 -0.181666,-0.957922 -0.180108,-2.160069 0.0045,-3.461616 0.155543,-1.096717 0.476055,-3.102209 0.71225,-4.456646 0.236194,-1.354437 0.564776,-2.987767 0.730183,-3.629621 0.165408,-0.641853 0.615828,-2.002719 1.000935,-3.024148 0.385108,-1.021427 1.245429,-2.85225 1.911826,-4.068496 0.666397,-1.216244 2.04108,-3.384423 3.054849,-4.818173 1.013769,-1.43375 2.92576,-3.845781 4.248866,-5.360067 1.323105,-1.514288 3.193655,-3.4245329 4.156776,-4.2449894 0.963123,-0.8204575 3.101129,-2.1895127 4.751128,-3.0423462 1.649998,-0.8528329 4.221424,-1.9692002 5.714281,-2.4808162 2.154976,-0.738531 3.214716,-0.9379027 5.142852,-0.9675391 1.335714,-0.02053 2.911848,-0.2198321 3.502522,-0.4428919 0.958591,-0.36199926 1.235933,-0.35050437 2.581923,0.1070113 1.446873,0.4918074 1.577003,0.4920058 3.211759,0.0049 1.248508,-0.3720176 2.581784,-0.49770069 4.9895,-0.47034158 2.451404,0.0278551 3.776131,0.18965148 5.217112,0.63719388 1.311498,0.4073278 2.247042,0.9155002 2.914832,1.5832898 0.590616,0.5906169 1.06158,1.4000044 1.179082,2.0263425 0.107608,0.5736009 0.122647,2.3433519 0.03343,3.9327814 -0.08923,1.5894285 -0.426769,4.1112985 -0.75009,5.6041545 -0.323321,1.492856 -0.799364,3.292855 -1.057874,3.999996 -0.258509,0.707143 -0.74091,1.584074 -1.072,1.948737 -0.379493,0.417971 -0.814172,0.613186 -1.176093,0.528184 -0.315759,-0.07417 -2.502677,-0.934571 -4.859818,-1.912025 -4.285711,-1.777188 -4.285711,-1.777188 -6.142853,-1.15806 -1.594569,0.531591 -2.071161,0.577572 -3.37089,0.32522 -1.042846,-0.202478 -2.198299,-0.200891 -3.714282,0.0051 -1.210294,0.164452 -2.971962,0.484914 -3.914818,0.712135 -0.942856,0.227224 -2.372431,0.625699 -3.176834,0.885501 -0.804401,0.259804 -1.941997,0.805044 -2.527986,1.211646 -0.585991,0.406602 -1.242042,1.060704 -1.45789,1.453562 -0.215848,0.392856 -1.22779,2.449997 -2.24876,4.571424 -1.37491,2.856863 -2.11844,4.880984 -2.867105,7.805156 -0.555938,2.171409 -1.847726,7.592728 -2.870637,12.047375 -1.022911,4.454647 -2.050657,8.556048 -2.283878,9.114224 -0.233221,0.558177 -0.424039,1.504673 -0.424039,2.103326 0,0.598654 0.200147,1.374211 0.444772,1.723461 0.244625,0.349251 0.679408,0.635002 0.966185,0.635002 0.286775,0 2.240198,-0.573885 4.340938,-1.2753 2.100739,-0.701415 4.783811,-1.425591 5.962381,-1.609277 1.178571,-0.183687 4.07143,-0.766943 6.428576,-1.296125 3.148647,-0.706876 4.973652,-0.962151 6.878596,-0.962151 1.426083,0 4.044032,-0.261303 5.817665,-0.580674 2.768742,-0.498555 3.55361,-0.537401 5.549964,-0.274684 1.490703,0.196174 2.958119,0.61217 4.088808,1.159134 1.466875,0.709592 1.866468,1.065582 2.374812,2.115681 0.586718,1.211999 0.599918,1.443635 0.329761,5.78664 -0.281421,4.524105 -0.281421,4.524105 -1.416707,6.51614 -1.084369,1.902692 -1.178258,1.987956 -2.093392,1.901068 -0.526957,-0.05003 -2.436675,-0.397089 -4.243816,-0.771236 -1.807142,-0.374147 -4.342761,-0.906121 -5.634711,-1.182164 -1.986597,-0.424462 -2.603717,-0.449526 -3.999997,-0.162454 -0.908048,0.186692 -3.579567,0.478685 -5.936708,0.648872 -2.357141,0.170188 -5.121424,0.434673 -6.142852,0.587748 -1.021428,0.153074 -2.621669,0.357708 -3.556092,0.454742 -1.028901,0.106842 -2.308024,0.496818 -3.243295,0.988799 -1.373225,0.722358 -1.836369,0.812374 -4.179813,0.812374 -2.368434,0 -2.695024,0.06514 -3.223279,0.642856 -0.323296,0.35357 -0.779612,1.028571 -1.014038,1.499999 -0.234426,0.471428 -0.623053,1.564284 -0.863618,2.428569 -0.240565,0.864285 -0.720957,2.903131 -1.067539,4.530769 -0.507657,2.384087 -0.576356,3.231399 -0.353419,4.358915 0.224328,1.134543 0.118274,2.386643 -0.560041,6.612079 -0.519941,3.238862 -0.779137,5.734151 -0.684555,6.590188 0.08372,0.75772 -0.09736,3.20057 -0.402398,5.42856 -0.305037,2.22799 -0.69297,5.46518 -0.862071,7.19375 -0.169101,1.72857 -0.41501,6.44392 -0.546466,10.47858 -0.230668,7.0797 -0.265478,7.39354 -0.997387,8.99225 -0.417108,0.91108 -0.965156,1.885 -1.217884,2.16426 -0.336056,0.37133 -0.888983,0.50769 -2.058081,0.50751 -1.020314,-1.3e-4 -2.014132,-0.20592 -2.74737,-0.56888 z"
       id="path1" /></g></svg>
