<?xml version="1.0" encoding="UTF-8" standalone="no"?>
<svg
   role="img"
   viewBox="0 0 512 512"
   version="1.1"
   id="svg1"
   sodipodi:docname="icon.svg"
   width="512"
   height="512"
   inkscape:version="1.3.2 (091e20e, 2023-11-25, custom)"
   xmlns:inkscape="http://www.inkscape.org/namespaces/inkscape"
   xmlns:sodipodi="http://sodipodi.sourceforge.net/DTD/sodipodi-0.dtd"
   xmlns="http://www.w3.org/2000/svg"
   xmlns:svg="http://www.w3.org/2000/svg"
   xmlns:rdf="http://www.w3.org/1999/02/22-rdf-syntax-ns#"
   xmlns:cc="http://creativecommons.org/ns#"
   xmlns:dc="http://purl.org/dc/elements/1.1/">
  <defs
     id="defs1" />
  <sodipodi:namedview
     id="namedview1"
     pagecolor="#ffffff"
     bordercolor="#000000"
     borderopacity="0.25"
     inkscape:showpageshadow="2"
     inkscape:pageopacity="0.0"
     inkscape:pagecheckerboard="0"
     inkscape:deskcolor="#d1d1d1"
     inkscape:zoom="1.633343"
     inkscape:cx="239.69246"
     inkscape:cy="239.69246"
     inkscape:window-width="1920"
     inkscape:window-height="1129"
     inkscape:window-x="-8"
     inkscape:window-y="-8"
     inkscape:window-maximized="1"
     inkscape:current-layer="svg1" />
  <title
     id="title1">MusicBrainz</title>
  <path
     d="M 247.55419,0 31,124.2566 v 262.83085 l 216.55419,124.2566 V 213.27308 l -95.49349,56.63135 v 78.0652 c 0.21306,2.36496 0.21306,4.79385 0,7.15881 -2.19452,9.26811 -11.50524,17.13003 -21.306,23.67097 -17.08741,11.44132 -37.328112,10.84476 -46.148797,-2.36496 -8.799379,-13.20973 -3.004147,-34.75009 14.189797,-46.19142 8.1815,-5.96568 18.38708,-8.50109 28.42221,-7.07359 V 141.02443 c 0,-3.28113 2.855,-5.36911 4.81515,-6.56225 L 247.55419,63.918006 Z m 17.81182,0 v 131.28759 c 12.22965,0.63918 24.28884,3.40896 35.53841,8.24542 a 47.405855,47.405855 0 0 0 35.28274,-15.27641 21.732122,21.732122 0 1 1 39.0326,-17.10872 l 0.0852,0.12784 a 21.774734,21.774734 0 0 1 -27.59127,25.50329 c -7.24404,8.58631 -16.87435,14.87158 -27.63389,18.1101 7.24405,5.60348 13.65715,12.27225 18.98365,19.77197 a 22.158242,22.158242 0 0 1 16.55477,2.66325 c 16.36301,10.35471 12.10181,35.30404 -6.77531,39.56524 -18.87712,4.2612 -33.53565,-16.40562 -23.22354,-32.78993 0.42612,-0.63918 0.89485,-1.27836 1.38489,-1.91754 a 76.658996,76.658996 0 0 0 -30.59542,-24.8428 88.249461,88.249461 0 0 0 -31.04285,-7.86192 v 85.43707 c 18.21663,1.27836 26.76034,10.50386 33.13083,17.76921 4.83647,5.45433 7.58494,8.30934 12.31487,8.56501 6.88184,0.38351 12.10181,0.17045 17.17264,0 a 115.90465,115.90465 0 0 1 19.06887,0.46873 c 20.02765,-0.3622 27.10124,-4.81515 34.19614,-9.50248 a 53.968103,53.968103 0 0 1 24.09709,-9.86467 21.881264,21.881264 0 0 1 2.55672,-5.60348 22.158242,22.158242 0 0 1 2.23713,-2.91893 c 0.49003,-0.53265 1.00138,-0.93746 1.49142,-1.40619 a 101.73616,101.73616 0 0 1 0,-51.24094 l -0.25568,-0.21306 a 21.732122,21.732122 0 1 1 14.74376,5.79524 h -1.21444 a 91.360137,91.360137 0 0 0 0,39.99136 h 1.34227 a 21.732122,21.732122 0 1 1 -11.61177,40.1192 l -1.00138,-0.70309 a 21.306002,21.306002 0 0 1 -7.49971,-9.41726 40.161814,40.161814 0 0 0 -17.34309,7.54233 64.557186,64.557186 0 0 1 -14.97812,7.77669 c 16.12865,11.82483 37.75424,34.0896 46.8519,48.9825 a 21.945182,21.945182 0 0 1 5.45434,-0.7031 21.732122,21.732122 0 1 1 -11.61177,40.05528 l -1.00139,-0.63918 a 21.668204,21.668204 0 0 1 -5.75262,-29.31706 15.340322,15.340322 0 0 1 1.08661,-1.53403 c -9.48117,-16.51215 -43.16596,-48.57768 -52.41277,-50.85742 a 86.012331,86.012331 0 0 0 -27.91086,-2.49281 c -5.11344,0.17045 -10.92998,0.38351 -18.451,0 -10.97259,-0.57526 -16.6826,-7.0949 -22.22216,-13.40147 -5.53956,-6.30658 -10.86606,-11.93136 -22.47783,-13.01797 v 149.01418 a 39.991366,39.991366 0 0 0 9.07636,-2.87631 7.0948987,7.0948987 0 0 1 1.23575,-0.57526 c 11.93136,-5.68871 30.27583,-19.38846 44.65738,-52.13579 a 21.732122,21.732122 0 0 1 -5.75262,-28.63527 21.732122,21.732122 0 1 1 19.49499,32.81125 133.65255,133.65255 0 0 1 -30.5102,45.50962 38.031214,38.031214 0 0 1 14.72245,6.51963 14.211103,14.211103 0 0 0 7.88322,3.57941 70.522867,70.522867 0 0 0 18.91973,-4.72993 21.732122,21.732122 0 0 1 38.07383,-16.83174 v -0.10653 a 21.732122,21.732122 0 0 1 -16.46954,35.858 21.774734,21.774734 0 0 1 -15.31902,-6.11482 83.839118,83.839118 0 0 1 -24.88541,6.11482 h -1.0653 a 27.974781,27.974781 0 0 1 -15.12726,-5.85915 c -5.58217,-3.77116 -10.86606,-7.35057 -29.87102,-2.55672 a 44.699992,44.699992 0 0 1 -15.06334,4.2612 v 102.9506 L 481.92022,387.08745 V 124.2566 Z m 88.50513,104.48463 a 7.4997127,7.4997127 0 0 0 -4.19728,13.61454 l 0.38351,0.21306 c 3.47288,2.1306 8.05367,1.12922 10.3121,-2.30105 v -0.0426 a 7.4997127,7.4997127 0 0 0 -6.45571,-11.48394 z m -106.31695,41.07798 -95.877,56.84441 v 42.612 l 95.877,-56.84441 z m 178.65083,8.09628 a 7.4997127,7.4997127 0 0 0 -6.28527,3.51549 v 0.0426 a 7.4571007,7.4571007 0 0 0 2.04538,10.07774 l 0.27697,0.21306 a 7.6062428,7.6062428 0 0 0 10.37603,-2.30105 7.4997127,7.4997127 0 0 0 -6.41311,-11.52655 z M 343.60165,184.233 a 7.4997127,7.4997127 0 0 0 -5.90176,3.47288 7.5636308,7.5636308 0 0 0 6.30657,11.50524 c 10.2695,0 9.86468,-15.55338 -0.42612,-14.97812 z m 82.60337,52.77497 a 7.4997127,7.4997127 0 0 0 -6.28527,3.49418 7.4571007,7.4571007 0 0 0 2.00276,10.12035 l 0.31959,0.21306 a 7.6062428,7.6062428 0 0 0 10.33342,-2.34366 7.4997127,7.4997127 0 0 0 -6.3918,-11.48393 z m -93.21376,76.57377 a 7.4997127,7.4997127 0 0 0 -6.20004,3.66463 7.4571007,7.4571007 0 0 0 -0.85224,5.64609 7.4997127,7.4997127 0 1 0 7.03098,-9.31072 z m 93.21376,16.81044 a 7.4997127,7.4997127 0 0 0 -6.28527,3.49418 v 0.0426 a 7.4997127,7.4997127 0 0 0 2.00276,10.07774 l 0.31959,0.21306 a 7.6062428,7.6062428 0 0 0 10.33342,-2.30105 7.4997127,7.4997127 0 0 0 -6.3918,-11.50524 z m -59.72072,53.00933 v 0.0426 a 7.3931827,7.3931827 0 0 0 -4.75124,1.7897 7.4997127,7.4997127 0 0 0 4.90038,13.20973 7.3931827,7.3931827 0 0 0 4.90038,-1.81101 7.4144887,7.4144887 0 0 0 2.55672,-5.11344 7.5210188,7.5210188 0 0 0 -7.4571,-8.09629 7.3931827,7.3931827 0 0 0 -0.14914,0 z"
     id="path1"
     style="stroke-width:21.306;fill:#ffffff;fill-opacity:1" />
  <metadata
     id="metadata1">
    <rdf:RDF>
      <cc:Work
         rdf:about="">
        <dc:title>MusicBrainz</dc:title>
      </cc:Work>
    </rdf:RDF>
  </metadata>
</svg>
