<?xml version="1.0" encoding="UTF-8" standalone="no"?>
<svg
   height="512"
   viewBox="0 0 512.00004 512"
   width="512"
   version="1.1"
   id="svg22"
   sodipodi:docname="MusicBrainz_Logo_(2016).svg"
   inkscape:version="1.3.2 (091e20e, 2023-11-25, custom)"
   xmlns:inkscape="http://www.inkscape.org/namespaces/inkscape"
   xmlns:sodipodi="http://sodipodi.sourceforge.net/DTD/sodipodi-0.dtd"
   xmlns="http://www.w3.org/2000/svg"
   xmlns:svg="http://www.w3.org/2000/svg"
   xmlns:rdf="http://www.w3.org/1999/02/22-rdf-syntax-ns#"
   xmlns:cc="http://creativecommons.org/ns#"
   xmlns:dc="http://purl.org/dc/elements/1.1/">
  <defs
     id="defs22" />
  <sodipodi:namedview
     id="namedview22"
     pagecolor="#ffffff"
     bordercolor="#000000"
     borderopacity="0.25"
     inkscape:showpageshadow="2"
     inkscape:pageopacity="0.0"
     inkscape:pagecheckerboard="0"
     inkscape:deskcolor="#d1d1d1"
     inkscape:zoom="1.0938058"
     inkscape:cx="63.539615"
     inkscape:cy="223.53145"
     inkscape:window-width="1920"
     inkscape:window-height="1129"
     inkscape:window-x="-8"
     inkscape:window-y="-8"
     inkscape:window-maximized="1"
     inkscape:current-layer="svg22" />
  <metadata
     id="metadata1">
    <rdf:RDF>
      <cc:Work
         rdf:about="">
        <dc:title>MusicBrainz_logo</dc:title>
      </cc:Work>
    </rdf:RDF>
  </metadata>
  <title
     id="title1">MusicBrainz_logo</title>
  <g
     transform="matrix(3.5916556,0,0,3.5508901,24.068784,1.238465)"
     id="g22">
    <path
       d="m 66,0 v 144 l 61,-35 V 35 Z"
       fill="#eb743b"
       transform="matrix(0.98480464,0,0,1,1.929811,0)"
       id="path1" />
    <path
       d="m 61,60 -1,-1 v -5 l 1,-1 V 41 H 60 V 20 l 1,-1 V 0 L 0,35 v 74 l 61,35 z"
       fill="#ba478f"
       transform="matrix(0.98480464,0,0,1,1.929811,0)"
       id="path2" />
    <path
       d="m 65.33,55.86 -27,16 V 60.21 L 65.33,44 V 21.41 L 32.81,40.68 h -0.06 a 2.77,2.77 0 0 0 -0.26,0.2 l -0.21,0.17 a 2.9,2.9 0 0 0 -0.19,0.22 c -0.06,0.07 -0.13,0.14 -0.18,0.22 a 2.52,2.52 0 0 0 -0.15,0.25 2.8,2.8 0 0 0 -0.13,0.25 c 0,0.09 -0.07,0.18 -0.1,0.28 a 2.76,2.76 0 0 0 -0.08,0.27 2.56,2.56 0 0 0 0,0.27 3,3 0 0 0 0,0.32 v 0.08 50.61 a 11,11 0 0 0 -8,2 c -4.84,3.22 -6.48,9.28 -4,13 2.48,3.72 8.19,3.9 13,0.68 2.76,-1.84 5.38,-4.07 6,-6.68 a 10.61,10.61 0 0 0 0,-2 c 0,-0.14 0,-0.28 0,-0.42 V 78.82 l 27,-16.15 z"
       opacity="0.07"
       transform="matrix(0.98480464,0,0,1,-2.3540892,-2.82)"
       id="path3" />
    <path
       d="M 62.002894,56 35.413168,72 V 60 L 62.002894,44 V 21 L 29.986895,40.69 h -0.05909 a 2.7279089,2.77 0 0 0 -0.25605,0.2 l -0.206809,0.17 a 2.8362374,2.88 0 0 0 -0.187112,0.22 c -0.05909,0.07 -0.128025,0.14 -0.177265,0.22 a 2.4915557,2.53 0 0 0 -0.147721,0.25 c 0,0.08 -0.09848,0.16 -0.128025,0.25 -0.02954,0.09 -0.06894,0.18 -0.09848,0.28 a 2.7377569,2.78 0 0 0 -0.07878,0.27 2.5309479,2.57 0 0 0 0,0.27 2.9544139,3 0 0 0 0,0.32 v 0.08 50.61 a 10.832851,11 0 0 0 -7.878438,2 c -4.766454,3.22 -6.381534,9.28 -3.939218,13 2.442315,3.72 8.06555,3.9 12.80246,0.68 2.718061,-1.84 5.298249,-4.07 5.908828,-6.68 a 10.448777,10.61 0 0 0 0,-2 c 0,-0.14 0,-0.28 0,-0.42 v -21.4 l 26.589725,-16 z"
       fill="#9d356d"
       stroke-width="0.992373"
       id="path4" />
    <path
       d="M 62.002894,53 35.413168,69 V 57 L 62.002894,41 V 18 L 29.957351,37.86 h -0.05909 a 2.7279089,2.77 0 0 0 -0.256049,0.2 l -0.206809,0.17 a 2.8559335,2.9 0 0 0 -0.187113,0.22 c -0.05909,0.07 -0.128024,0.14 -0.177264,0.22 a 2.4817077,2.52 0 0 0 -0.147721,0.25 2.757453,2.8 0 0 0 -0.128025,0.25 c 0,0.09 -0.06894,0.18 -0.09848,0.28 a 2.7180608,2.76 0 0 0 -0.07878,0.27 2.5210999,2.56 0 0 0 0,0.27 2.9544139,3 0 0 0 0,0.32 V 40.39 91 a 10.832851,11 0 0 0 -7.878437,2 c -4.766454,3.22 -6.381534,9.28 -3.939218,13 2.442315,3.72 8.06555,3.9 12.80246,0.68 2.718061,-1.84 5.298249,-4.07 5.908828,-6.68 a 10.448777,10.61 0 0 0 0,-2 c 0,-0.14 0,-0.28 0,-0.42 V 76 L 62.101374,60 Z"
       fill="#fffedb"
       stroke-width="0.992373"
       id="path5" />
    <g
       opacity="0.07"
       transform="matrix(0.98480464,0,0,1,-2.3540892,-2.82)"
       id="g13">
      <path
         d="m 87.66,94.56 a 2.11,2.11 0 1 1 -0.23,1.6 2.1,2.1 0 0 1 0.23,-1.6 z m 12.6,22.36 a 2.08,2.08 0 0 1 -1.37,0.51 2.11,2.11 0 0 1 -1.38,-3.72 2.08,2.08 0 0 1 1.37,-0.51 2.12,2.12 0 0 1 2.11,2.28 2.09,2.09 0 0 1 -0.73,1.44 z"
         id="path6" />
      <path
         d="m 79.36,48.43 h 0.21 z"
         id="path7" />
      <path
         d="M 90.73,58.08 A 2.07,2.07 0 0 1 91.4,57.42 2.11,2.11 0 1 1 92.51,61.33 2.1,2.1 0 0 1 91.39,61 2.13,2.13 0 0 1 90.73,58.08 Z m 6.38,-20.19 a 2.14,2.14 0 0 1 -2.91,0.65 l -0.1,-0.06 a 2.11,2.11 0 1 1 3.29,-2.17 2.08,2.08 0 0 1 -0.28,1.58 z"
         id="path8" />
      <path
         d="m 113.88,49.49 a 2.1126109,2.1126109 0 1 1 3.57,2.26 2.14,2.14 0 0 1 -2.91,0.65 l -0.09,-0.06 a 2.1,2.1 0 0 1 -0.57,-2.85 z m 0,23.46 a 2.1126109,2.1126109 0 1 1 3.57,2.26 2.14,2.14 0 0 1 -2.91,0.65 L 114.45,75.8 A 2.1,2.1 0 0 1 113.88,73 Z m 0,26.3 a 2.1126109,2.1126109 0 1 1 3.57,2.26 2.14,2.14 0 0 1 -2.91,0.65 l -0.09,-0.06 a 2.11,2.11 0 0 1 -0.57,-2.84 z"
         id="path9" />
      <path
         d="m 103.53,108.93 a 6.12,6.12 0 0 0 -10.72,4.74 19.86,19.86 0 0 1 -5.33,1.33 4,4 0 0 1 -2.22,-1 10.71,10.71 0 0 0 -4.15,-1.85 37.64,37.64 0 0 0 8.59,-12.81 6.12,6.12 0 1 0 -5.48,-9.24 6.12,6.12 0 0 0 1.62,8.06 c -4.05,9.22 -9.22,13.08 -12.57,14.68 a 2,2 0 0 0 -0.36,0.17 11.26,11.26 0 0 1 -2.56,0.81 v 4 a 12.59,12.59 0 0 0 4.25,-1.19 c 5.35,-1.36 6.84,-0.35 8.41,0.71 a 7.88,7.88 0 0 0 4.26,1.66 h 0.31 a 23.61,23.61 0 0 0 7,-1.72 6.13,6.13 0 0 0 4.31,1.72 6.12,6.12 0 0 0 4.64,-10.1 z M 87.66,92.15 a 2.11,2.11 0 1 1 -0.23,1.6 2.1,2.1 0 0 1 0.23,-1.6 z m 12.6,22.36 a 2.08,2.08 0 0 1 -1.37,0.51 2.11,2.11 0 0 1 -1.38,-3.72 2.08,2.08 0 0 1 1.37,-0.51 2.12,2.12 0 0 1 2.11,2.28 2.09,2.09 0 0 1 -0.73,1.44 z"
         id="path10" />
      <path
         d="m 79.36,46 h 0.21 z"
         id="path11" />
      <path
         d="m 101.3,33 a 6.12,6.12 0 1 0 -11,4.82 13.35,13.35 0 0 1 -9.94,4.29 29.15,29.15 0 0 0 -10,-2.32 v 4 a 24.8,24.8 0 0 1 8.74,2.21 21.59,21.59 0 0 1 8.61,7 6.32,6.32 0 0 0 -0.38,0.54 6.12,6.12 0 1 0 8.45,-1.91 6.22,6.22 0 0 0 -4.67,-0.75 26,26 0 0 0 -5.34,-5.57 16.35,16.35 0 0 0 7.78,-5.1 6.15,6.15 0 0 0 1.77,0.27 6.13,6.13 0 0 0 6,-7.45 z M 90.73,55.67 a 2.07,2.07 0 0 1 0.67,-0.66 2.11,2.11 0 1 1 1.11,3.91 2.1,2.1 0 0 1 -1.12,-0.33 2.13,2.13 0 0 1 -0.66,-2.92 z m 6.38,-20.19 a 2.14,2.14 0 0 1 -2.91,0.65 l -0.1,-0.06 a 2.11,2.11 0 1 1 3.29,-2.17 2.08,2.08 0 0 1 -0.28,1.59 z"
         id="path12" />
      <path
         d="m 110,74 a 6,6 0 0 0 2.11,2.65 l 0.28,0.19 a 6.12,6.12 0 1 0 3.27,-11.29 h -0.37 a 25.73,25.73 0 0 1 0,-11.26 h 0.34 a 6.12,6.12 0 1 0 -4.15,-1.63 l 0.07,0.06 a 28.65,28.65 0 0 0 0,14.42 c -0.14,0.13 -0.29,0.25 -0.43,0.4 a 6.24,6.24 0 0 0 -0.63,0.82 6.16,6.16 0 0 0 -0.71,1.58 15.2,15.2 0 0 0 -6.78,2.78 c -2,1.32 -4,2.57 -9.64,2.67 A 32.64,32.64 0 0 0 88,75.27 c -1.43,0.05 -2.91,0.11 -4.85,0 -1.33,-0.07 -2.1,-0.88 -3.46,-2.42 -1.8,-2.05 -4.22,-4.65 -9.37,-5 v 4 c 3.29,0.3 4.8,1.89 6.36,3.67 1.56,1.78 3.17,3.62 6.26,3.78 2.12,0.11 3.76,0.05 5.21,0 A 24.22,24.22 0 0 1 96,80 c 2.61,0.64 12.1,9.67 14.77,14.32 -0.11,0.14 -0.22,0.28 -0.31,0.43 a 6.1,6.1 0 0 0 1.62,8.25 l 0.28,0.19 a 6.12,6.12 0 1 0 3.27,-11.29 6.18,6.18 0 0 0 -1.54,0.2 C 111.53,87.91 105.44,81.64 100.9,78.31 A 18.18,18.18 0 0 0 105.11,76.12 11.31,11.31 0 0 1 110,74 Z m 3.88,-26.92 a 2.1126109,2.1126109 0 1 1 3.57,2.26 2.14,2.14 0 0 1 -2.91,0.65 l -0.09,-0.06 a 2.1,2.1 0 0 1 -0.57,-2.84 z m 0,23.46 a 2.1126109,2.1126109 0 1 1 3.57,2.26 2.14,2.14 0 0 1 -2.91,0.65 l -0.09,-0.06 a 2.1,2.1 0 0 1 -0.57,-2.84 z m 0,26.3 a 2.1126109,2.1126109 0 1 1 3.57,2.26 2.14,2.14 0 0 1 -2.91,0.65 l -0.09,-0.06 a 2.11,2.11 0 0 1 -0.57,-2.84 z"
         id="path13" />
    </g>
    <g
       stroke-width="0.992373"
       id="g21">
      <path
         d="m 99.602735,109.11 a 6.0270044,6.12 0 0 0 -10.557106,4.74 19.55822,19.86 0 0 1 -5.249009,1.33 3.9392186,4 0 0 1 -2.186266,-1 10.547258,10.71 0 0 0 -4.086939,-1.85 37.068047,37.64 0 0 0 8.449624,-12.83 6.0270044,6.12 0 1 0 -5.39673,-9.24 6.0270044,6.12 0 0 0 1.595384,8.06 C 78.183234,107.54 73.091794,111.4 69.792698,113 a 1.9696093,2 0 0 0 -0.354529,0.17 11.0889,11.26 0 0 1 -2.5211,0.81 v 4 a 12.39869,12.59 0 0 0 4.18542,-1.19 c 5.268704,-1.36 6.736063,-0.35 8.282207,0.71 a 7.7602606,7.88 0 0 0 4.205115,1.68 h 0.30529 a 23.251238,23.61 0 0 0 6.893632,-1.72 6.0368524,6.13 0 0 0 4.244508,1.72 6.0270044,6.12 0 0 0 4.569494,-10.1 z M 83.973885,92.33 a 2.0779378,2.11 0 1 1 -0.226505,1.6 2.0680897,2.1 0 0 1 0.226505,-1.6 z m 12.408539,22.36 a 2.0483937,2.08 0 0 1 -1.349183,0.51 2.0779378,2.11 0 0 1 -1.35903,-3.72 2.0483937,2.08 0 0 1 1.349182,-0.51 2.0877858,2.12 0 0 1 2.077938,2.28 2.0582417,2.09 0 0 1 -0.718907,1.44 z"
         fill="#d3562c"
         id="path14" />
      <path
         d="m 75.800007,45.61 h 0.206809 z"
         id="path15" />
      <path
         d="M 97.406621,33.18 A 6.0270044,6.12 0 1 0 86.57377,38 13.147142,13.35 0 0 1 76.784811,42.29 28.707055,29.15 0 0 0 66.936765,39.97 v 4 a 24.433003,24.81 0 0 1 8.607193,2.21 21.261932,21.59 0 0 1 8.479167,7 6.2239653,6.32 0 0 0 -0.374225,0.54 6.0270044,6.12 0 1 0 8.321599,-1.91 6.1254849,6.22 0 0 0 -4.599038,-0.75 25.604921,26 0 0 0 -5.258857,-5.57 16.101556,16.35 0 0 0 7.661781,-5.1 6.0565485,6.15 0 0 0 1.743104,0.27 6.0368524,6.13 0 0 0 5.908828,-7.45 z M 86.997236,55.86 a 2.0385456,2.07 0 0 1 0.659819,-0.66 2.0779378,2.11 0 1 1 1.093133,3.91 2.0680897,2.1 0 0 1 -1.102981,-0.33 2.0976339,2.13 0 0 1 -0.649971,-2.92 z m 6.283053,-20.19 a 2.1074819,2.14 0 0 1 -2.865781,0.65 l -0.09848,-0.06 a 2.0779378,2.11 0 1 1 3.240007,-2.17 2.0483937,2.08 0 0 1 -0.275745,1.58 z"
         fill="#d3562c"
         id="path16" />
      <path
         d="m 105.97442,74.18 a 5.9088278,6 0 0 0 2.07794,2.65 l 0.27574,0.19 a 6.0270044,6.12 0 1 0 3.22032,-11.29 h -0.36438 a 25.339023,25.73 0 0 1 0,-11.26 h 0.33483 a 6.0270044,6.12 0 1 0 -4.08694,-1.63 l 0.0689,0.06 a 28.214653,28.65 0 0 0 0,14.42 c -0.13787,0.13 -0.2856,0.25 -0.42347,0.4 a 6.145181,6.24 0 0 0 -0.62042,0.82 6.0663966,6.16 0 0 0 -0.69922,1.58 14.969031,15.2 0 0 0 -6.676972,2.78 c -1.969609,1.32 -3.939218,2.57 -9.493516,2.67 a 32.144023,32.64 0 0 0 -5.278553,-0.12 c -1.408271,0.05 -2.865782,0.11 -4.776303,0 -1.30979,-0.07 -2.068089,-0.88 -3.407424,-2.42 -1.772648,-2.05 -4.155875,-4.65 -9.227619,-5 v 4 c 3.240007,0.3 4.727062,1.89 6.263357,3.67 1.536296,1.78 3.121831,3.62 6.164877,3.78 2.087786,0.11 3.702866,0.05 5.130833,0 a 23.851968,24.22 0 0 1 7.730716,0.7 c 2.57034,0.64 11.916134,9.67 14.545564,14.32 -0.10833,0.14 -0.21666,0.28 -0.30529,0.43 a 6.0073083,6.1 0 0 0 1.59538,8.25 l 0.27575,0.19 a 6.0270044,6.12 0 1 0 3.22031,-11.29 6.0860927,6.18 0 0 0 -1.5166,0.2 c -2.5211,-4.19 -8.51856,-10.46 -12.989571,-13.79 a 17.903748,18.18 0 0 0 4.146031,-2.19 11.13814,11.31 0 0 1 4.81569,-2.12 z m 3.82104,-26.92 a 2.0805122,2.1126141 0 1 1 3.51576,2.26 2.1074819,2.14 0 0 1 -2.86579,0.65 l -0.0886,-0.06 a 2.0680897,2.1 0 0 1 -0.56134,-2.84 z m 0,23.46 a 2.0805122,2.1126141 0 1 1 3.51576,2.26 2.1074819,2.14 0 0 1 -2.86579,0.65 l -0.0886,-0.06 a 2.0680897,2.1 0 0 1 -0.56134,-2.84 z m 0,26.3 a 2.0805122,2.1126141 0 1 1 3.51576,2.26 2.1074819,2.14 0 0 1 -2.86579,0.65 l -0.0886,-0.06 a 2.0779378,2.11 0 0 1 -0.56134,-2.84 z"
         fill="#d3562c"
         id="path17" />
      <path
         d="m 99.602735,106.11 a 6.0270044,6.12 0 0 0 -10.557106,4.74 19.55822,19.86 0 0 1 -5.249009,1.33 3.9392186,4 0 0 1 -2.186266,-1 10.547258,10.71 0 0 0 -4.086939,-1.85 37.068047,37.64 0 0 0 8.459472,-12.81 6.0270044,6.12 0 1 0 -5.39673,-9.24 6.0270044,6.12 0 0 0 1.595384,8.06 c -3.988459,9.22 -9.079899,13.08 -12.378995,14.68 a 1.9696093,2 0 0 0 -0.354529,0.17 11.0889,11.26 0 0 1 -2.5211,0.81 v 4 a 12.39869,12.59 0 0 0 4.18542,-1.19 c 5.268704,-1.36 6.736063,-0.35 8.282207,0.71 a 7.7602606,7.88 0 0 0 4.195267,1.66 h 0.30529 a 23.251238,23.61 0 0 0 6.893632,-1.72 6.0368524,6.13 0 0 0 4.244508,1.72 6.0270044,6.12 0 0 0 4.569494,-10.1 z M 83.973885,89.33 a 2.0779378,2.11 0 1 1 -0.226505,1.6 2.0680897,2.1 0 0 1 0.226505,-1.6 z m 12.408539,22.36 a 2.0483937,2.08 0 0 1 -1.349183,0.51 2.0779378,2.11 0 0 1 -1.35903,-3.72 2.0483937,2.08 0 0 1 1.349182,-0.51 2.0877858,2.12 0 0 1 2.077938,2.28 2.0582417,2.09 0 0 1 -0.718907,1.44 z"
         fill="#fffedb"
         id="path18" />
      <path
         d="m 75.800007,43.18 h 0.206809 z"
         fill="#fffedb"
         id="path19" />
      <path
         d="M 97.406621,30.18 A 6.0270044,6.12 0 1 0 86.57377,35 13.147142,13.35 0 0 1 76.784811,39.29 28.707055,29.15 0 0 0 66.936765,36.97 v 4 a 24.423155,24.8 0 0 1 8.607193,2.21 21.261932,21.59 0 0 1 8.479167,7 6.2239653,6.32 0 0 0 -0.374225,0.54 6.0270044,6.12 0 1 0 8.321599,-1.91 6.1254849,6.22 0 0 0 -4.599038,-0.75 25.604921,26 0 0 0 -5.258857,-5.57 16.101556,16.35 0 0 0 7.661781,-5.1 6.0565485,6.15 0 0 0 1.743104,0.27 6.0368524,6.13 0 0 0 5.908828,-7.45 z M 86.997236,52.85 a 2.0385456,2.07 0 0 1 0.659819,-0.66 2.0779378,2.11 0 1 1 1.093133,3.91 2.0680897,2.1 0 0 1 -1.102981,-0.33 2.0976339,2.13 0 0 1 -0.649971,-2.92 z m 6.283053,-20.19 a 2.1074819,2.14 0 0 1 -2.865781,0.65 l -0.09848,-0.06 a 2.0779378,2.11 0 1 1 3.240007,-2.17 2.0483937,2.08 0 0 1 -0.275745,1.59 z"
         fill="#fffedb"
         id="path20" />
      <path
         d="m 105.97442,71.18 a 5.9088278,6 0 0 0 2.07794,2.65 l 0.27574,0.19 a 6.0270044,6.12 0 1 0 3.22032,-11.29 h -0.36438 a 25.339023,25.73 0 0 1 0,-11.26 h 0.33483 a 6.0270044,6.12 0 1 0 -4.08694,-1.63 l 0.0689,0.06 a 28.214653,28.65 0 0 0 0,14.42 c -0.13787,0.13 -0.2856,0.25 -0.42347,0.4 a 6.145181,6.24 0 0 0 -0.62042,0.82 6.0663966,6.16 0 0 0 -0.69922,1.58 14.969031,15.2 0 0 0 -6.676972,2.78 c -1.969609,1.32 -3.939218,2.57 -9.493516,2.67 a 32.144023,32.64 0 0 0 -5.278553,-0.12 c -1.408271,0.05 -2.865782,0.11 -4.776303,0 -1.30979,-0.07 -2.068089,-0.88 -3.407424,-2.42 -1.772648,-2.05 -4.155875,-4.65 -9.227619,-5 v 4 c 3.240007,0.3 4.727062,1.89 6.263357,3.67 1.536296,1.78 3.121831,3.62 6.164877,3.78 2.087786,0.11 3.702866,0.05 5.130833,0 a 23.851968,24.22 0 0 1 7.730716,0.7 c 2.57034,0.64 11.916134,9.67 14.545564,14.32 -0.10833,0.14 -0.21666,0.28 -0.30529,0.43 a 6.0073083,6.1 0 0 0 1.59538,8.25 l 0.27575,0.19 a 6.0270044,6.12 0 1 0 3.22031,-11.29 6.0860927,6.18 0 0 0 -1.5166,0.2 c -2.5211,-4.19 -8.51856,-10.46 -12.989571,-13.79 a 17.903748,18.18 0 0 0 4.146031,-2.19 11.13814,11.31 0 0 1 4.81569,-2.12 z m 3.82104,-26.92 a 2.0805122,2.1126141 0 1 1 3.51576,2.26 2.1074819,2.14 0 0 1 -2.86579,0.65 l -0.0886,-0.06 a 2.0680897,2.1 0 0 1 -0.56134,-2.84 z m 0,23.46 a 2.0805122,2.1126141 0 1 1 3.51576,2.26 2.1074819,2.14 0 0 1 -2.86579,0.65 l -0.0886,-0.06 a 2.0680897,2.1 0 0 1 -0.56134,-2.84 z m 0,26.3 a 2.0805122,2.1126141 0 1 1 3.51576,2.26 2.1074819,2.14 0 0 1 -2.86579,0.65 l -0.0886,-0.06 a 2.0779378,2.11 0 0 1 -0.56134,-2.84 z"
         fill="#fffedb"
         id="path21" />
    </g>
  </g>
</svg>
