<?xml version="1.0" encoding="UTF-8" standalone="no"?>
<!-- Uploaded to: SVG Repo, www.svgrepo.com, Generator: SVG Repo Mixer Tools -->

<svg
   fill="#000000"
   width="512"
   height="512"
   viewBox="0 0 31.999998 31.999998"
   version="1.1"
   id="svg1"
   sodipodi:docname="icon_monochrome.svg"
   inkscape:version="1.3.2 (091e20e, 2023-11-25, custom)"
   xmlns:inkscape="http://www.inkscape.org/namespaces/inkscape"
   xmlns:sodipodi="http://sodipodi.sourceforge.net/DTD/sodipodi-0.dtd"
   xmlns="http://www.w3.org/2000/svg"
   xmlns:svg="http://www.w3.org/2000/svg">
  <defs
     id="defs1" />
  <sodipodi:namedview
     id="namedview1"
     pagecolor="#ffffff"
     bordercolor="#000000"
     borderopacity="0.25"
     inkscape:showpageshadow="2"
     inkscape:pageopacity="0.0"
     inkscape:pagecheckerboard="0"
     inkscape:deskcolor="#d1d1d1"
     inkscape:zoom="1.10875"
     inkscape:cx="400"
     inkscape:cy="400"
     inkscape:window-width="1920"
     inkscape:window-height="1129"
     inkscape:window-x="-8"
     inkscape:window-y="-8"
     inkscape:window-maximized="1"
     inkscape:current-layer="svg1" />
  <path
     d="m 16.01,22.929044 15.99,-9.969 v 2.703 l -15.99,10.01 L 0,15.657044 v -2.698 z m 0,-12.505 c -3.609,0 -6.781,1.818 -8.599,4.625 0.151,-0.146 0.234,-0.234 0.385,-0.339 4.495,-3.74 10.979,-2.891 14.51,1.818 l 2.344,-1.5 c -1.859,-2.724 -5.052,-4.604 -8.641,-4.604 z m 0,4.625 c -1.875,0.005 -3.635,0.911 -4.729,2.427 0.823,-0.604 1.823,-0.932 2.849,-0.927 1.734,0 3.276,0.885 4.307,2.385 l 2.24,-1.391 c -0.969,-1.547 -2.703,-2.495 -4.667,-2.495 z m -10.812,-4.057 c 6.589,-5.1930001 15.901,-3.781 20.87,3.13 l 0.036,0.042 2.432,-1.5 c -2.76,-4.234 -7.474,-6.7810001 -12.526,-6.7810001 -5.198,0 -9.823,2.6610001 -12.526,6.7810001 0.484,-0.552 1.099,-1.203 1.714,-1.672 z"
     id="path1"
     style="fill:#ffffff;fill-opacity:1" />
</svg>
