<?xml version="1.0" encoding="UTF-8" standalone="no"?>
<svg
   viewBox="0 0 51.2 51.2"
   fill="none"
   version="1.1"
   id="svg3"
   sodipodi:docname="icon_monochrome.svg"
   width="512"
   height="512"
   inkscape:version="1.3.2 (091e20e, 2023-11-25, custom)"
   xmlns:inkscape="http://www.inkscape.org/namespaces/inkscape"
   xmlns:sodipodi="http://sodipodi.sourceforge.net/DTD/sodipodi-0.dtd"
   xmlns="http://www.w3.org/2000/svg"
   xmlns:svg="http://www.w3.org/2000/svg">
  <defs
     id="defs3" />
  <sodipodi:namedview
     id="namedview3"
     pagecolor="#ffffff"
     bordercolor="#000000"
     borderopacity="0.25"
     inkscape:showpageshadow="2"
     inkscape:pageopacity="0.0"
     inkscape:pagecheckerboard="0"
     inkscape:deskcolor="#d1d1d1"
     inkscape:zoom="1.7324219"
     inkscape:cx="254.26832"
     inkscape:cy="256"
     inkscape:window-width="1920"
     inkscape:window-height="1129"
     inkscape:window-x="-8"
     inkscape:window-y="-8"
     inkscape:window-maximized="1"
     inkscape:current-layer="svg3" />
  <g
     id="g3"
     transform="matrix(2.3276212,0,0,2.3276212,-2.3276212,-0.9104848)"
     style="fill:#ffffff;fill-opacity:1">
    <path
       d="M 5.49875,4.68702 C 5.49875,4.30759 5.79351,4 6.15711,4 h 7.68079 c 0.3636,0 0.6584,0.30759 0.6584,0.68702 V 16.6527 c 0,0.0577 -0.0032,0.115 -0.0094,0.1717 C 14.355,18.0406 12.8466,19 11.5885,19 10.1621,19 8.6808,18.2926 8.6808,16.6527 c 0,-1.6399 1.31671,-2.4619 2.6883,-2.4619 0.6489,0 1.284,0.1903 1.8105,0.5027 V 8.23664 c 0,-0.31619 -0.2457,-0.57252 -0.5487,-0.57252 H 7.36409 c -0.303,0 -0.54863,0.25633 -0.54863,0.57252 V 16.6527 C 6.81546,17.9491 5.22444,19 3.90773,19 2.4813,19 1,18.2926 1,16.6527 c 0,-1.6399 1.31671,-2.4619 2.68828,-2.4619 0.6489,0 1.28399,0.1903 1.81047,0.5027 z"
       fill="#2baaa6"
       id="path1"
       style="fill:#ffffff;fill-opacity:1" />
    <path
       fill-rule="evenodd"
       clip-rule="evenodd"
       d="m 16.5028,7.51765 c 0.3865,-0.35529 0.9759,-0.31632 1.3163,0.08705 0.902,1.06865 1.4502,2.4736 1.4502,4.0098 0,1.5362 -0.5482,2.9412 -1.4502,4.0098 -0.3404,0.4034 -0.9298,0.4424 -1.3163,0.0871 -0.3865,-0.3553 -0.4239,-0.9703 -0.0834,-1.3737 0.6135,-0.7269 0.9846,-1.6786 0.9846,-2.7232 0,-1.0446 -0.3711,-1.99632 -0.9846,-2.72317 -0.3405,-0.40337 -0.3031,-1.01839 0.0834,-1.37368 z"
       fill="#2baaa6"
       id="path2"
       style="fill:#ffffff;fill-opacity:1" />
    <path
       fill-rule="evenodd"
       clip-rule="evenodd"
       d="M 19.2531,4.87572 C 19.638,4.51854 20.2275,4.55463 20.5698,4.95632 22.081,6.72989 23,9.06177 23,11.6145 c 0,2.5527 -0.919,4.8846 -2.4302,6.6582 -0.3423,0.4017 -0.9318,0.4378 -1.3167,0.0806 -0.385,-0.3572 -0.4195,-0.9724 -0.0773,-1.3741 1.2207,-1.4326 1.9589,-3.309 1.9589,-5.3647 0,-2.05568 -0.7382,-3.93211 -1.9589,-5.36472 C 18.8336,5.84809 18.8681,5.2329 19.2531,4.87572 Z"
       fill="#2baaa6"
       id="path3"
       style="fill:#ffffff;fill-opacity:1" />
  </g>
</svg>
