<?xml version="1.0" encoding="UTF-8" standalone="no"?>
<svg
   viewBox="0 0 511.99999 512.00002"
   version="1.1"
   id="svg2"
   sodipodi:docname="icon_monochrome.svg"
   inkscape:version="1.3.2 (091e20e, 2023-11-25, custom)"
   width="512"
   height="512"
   xmlns:inkscape="http://www.inkscape.org/namespaces/inkscape"
   xmlns:sodipodi="http://sodipodi.sourceforge.net/DTD/sodipodi-0.dtd"
   xmlns="http://www.w3.org/2000/svg"
   xmlns:svg="http://www.w3.org/2000/svg">
  <defs
     id="defs2" />
  <sodipodi:namedview
     id="namedview2"
     pagecolor="#ffffff"
     bordercolor="#000000"
     borderopacity="0.25"
     inkscape:showpageshadow="2"
     inkscape:pageopacity="0.0"
     inkscape:pagecheckerboard="0"
     inkscape:deskcolor="#d1d1d1"
     inkscape:zoom="1.7324219"
     inkscape:cx="256"
     inkscape:cy="267.54453"
     inkscape:window-width="1920"
     inkscape:window-height="1129"
     inkscape:window-x="-8"
     inkscape:window-y="-8"
     inkscape:window-maximized="1"
     inkscape:current-layer="svg2" />
  <linearGradient
     id="a"
     x1="0.50106996"
     x2="0.50106996"
     y1="0.027209999"
     y2="0.98003995">
    <stop
       offset="0"
       stop-color="#f80"
       id="stop1" />
    <stop
       offset="1"
       stop-color="#f30"
       id="stop2" />
  </linearGradient>
  <path
     d="m 0,346.97412 c 0,6.35278 2.3030454,11.15607 6.9083171,14.41211 4.6054759,3.25543 9.5285509,4.40664 14.7692229,3.45406 4.92287,-0.9528 8.37713,-2.6999 10.362783,-5.24068 1.984833,-2.54079 2.977761,-6.74962 2.977761,-12.62549 v -69.08214 c 0,-4.92348 -1.70696,-9.0924 -5.1217,-12.50632 -3.413921,-3.41474 -7.582624,-5.1217 -12.506108,-5.1217 -4.764378,0 -8.8536299,1.70696 -12.2681654,5.1217 C 1.707575,268.79958 0,272.96829 0,277.89198 Z m 54.789423,29.53866 c 0,4.60628 1.62792,8.05973 4.883349,10.36298 3.255839,2.30305 7.424951,3.45406 12.506313,3.45406 5.240672,0 9.48862,-1.15163 12.744459,-3.45406 3.25543,-2.30264 4.883554,-5.7567 4.883554,-10.36298 V 215.47979 c 0,-4.76437 -1.707779,-8.85404 -5.1217,-12.26816 -3.414536,-3.41392 -7.583239,-5.1215 -12.506313,-5.1215 -4.764174,0 -8.85404,1.70758 -12.267961,5.1215 -3.41474,3.41474 -5.121701,7.50379 -5.121701,12.26816 z m 54.551277,7.62295 c 0,4.60569 1.66744,8.05975 5.00252,10.36279 3.33488,2.30264 7.62276,3.45426 12.86405,3.45426 5.08157,0 9.25027,-1.15162 12.5057,-3.45426 3.25584,-2.30304 4.88396,-5.7571 4.88396,-10.36279 v -146.9786 c 0,-4.92287 -1.70758,-9.1317 -5.1217,-12.62549 -3.41454,-3.49358 -7.50359,-5.24006 -12.26796,-5.24006 -4.92348,0 -9.13171,1.74648 -12.62548,5.24006 -3.49358,3.49379 -5.24068,7.70262 -5.24068,12.62549 v 146.9786 z m 54.78942,0.71465 c 0,8.73486 5.87587,13.1024 17.62781,13.1024 11.75174,0 17.6274,-4.36754 17.6274,-13.1024 V 146.63559 c 0,-13.34014 -4.04952,-20.88344 -12.14899,-22.63054 -5.24067,-1.2706 -10.4023,0.23815 -15.48387,4.52603 -5.08197,4.28787 -7.62297,10.32244 -7.62297,18.1043 v 238.215 z m 55.74284,6.90832 V 132.58081 c 0,-8.25796 2.46132,-13.18103 7.38461,-14.76943 C 237.8974,115.2706 248.45861,114 258.94015,114 c 24.29737,0 46.92831,5.71717 67.8908,17.15151 20.9629,11.43435 37.91619,27.03739 50.85866,46.80914 12.9435,19.77257 20.44709,41.56847 22.51157,65.39056 9.68725,-4.12918 20.00949,-6.19367 30.96733,-6.19367 22.23349,0 41.25127,7.86111 57.05254,23.58333 15.80167,15.72263 23.70292,34.62083 23.70292,56.69563 0,22.23348 -7.90125,41.21113 -23.70292,56.93335 -15.80127,15.72223 -34.73939,23.58334 -56.81439,23.58334 l -207.24685,-0.23814 c -1.42991,-0.4765 -2.50188,-1.35026 -3.21653,-2.62045 -0.71465,-1.27018 -1.07032,-2.38311 -1.07032,-3.3359 z"
     fill="url(#a)"
     id="path2"
     style="fill:#ffffff;fill-opacity:1;stroke-width:0.20477" />
</svg>
